<svg xmlns="http://www.w3.org/2000/svg" viewBox="0 0 196.4 67.58"><defs><style>.cls-1{fill:none;stroke:#fff;stroke-miterlimit:10;}</style></defs><title>about_2</title><g id="Layer_2" data-name="Layer 2"><g id="Layer_2-2" data-name="Layer 2"><path id="t" class="cls-1" d="M185.15.74S185,15.22,184.86,33c-.16,19.09-.3,34.56-.3,34.56s.06-6,.3-34.56l-12.38-.34,23.92.44L184.86,33C185.1,6.33,185.15.74,185.15.74Z"/><path id="b" class="cls-1" d="M46.42,35.55A26.39,26.39,0,0,1,63,32.08c2.68.35,11.1,1.46,15.71,8.7A17.11,17.11,0,0,1,81.24,53,17.47,17.47,0,0,1,69.89,65.73c-8,2.77-18.06-1.18-23.69-10.15q-.21,5.63-.43,11.26c.17-6,.32-9.29.43-11.26,0-.52.15-2,.18-4.13,0,0,.06-2,.07-4,0-3,0-21.76-.17-47.48"/><path id="a" class="cls-1" d="M.66,25C5.14,17.23,12.86,12.79,20,13.92c8.43,1.35,12.65,10,13.15,11,2.27,4.83,2.13,10.64,2.43,22.25,0,1.66.07,3,.08,4,0,2.07.15,3.6.18,4.12.11,2,.25,5.31.42,11.26l-.42-11.26c-5.64,9-15.66,12.92-23.69,10.16A17.48,17.48,0,0,1,.78,52.7,17.07,17.07,0,0,1,3.29,40.5C7.91,33.25,16.34,32.14,19,31.79A26.33,26.33,0,0,1,35.13,35"/><path id="u" class="cls-1" d="M163.48,66.55C162.81,39.28,162.79,32,163,32s5.07,21.68-5.12,30.35c-5.25,4.47-14.73,5.67-21.11,1.72-3.8-2.35-5.59-6-6.54-8-1.89-3.9-2-8.13-2.39-16.37-.13-3.18-.14-5.83-.12-7.69l.26,0"/><path id="o" class="cls-1" d="M88.06,40.44c-4,7.52.2,15.59.64,16.39a18.73,18.73,0,0,0,15.78,9.72c9.19.21,19-6.95,19.28-16.58.29-8.32-6.58-14.84-13.26-17.06C102.63,30.29,92.22,32.69,88.06,40.44Z"/></g></g></svg>