<svg xmlns="http://www.w3.org/2000/svg" viewBox="0 0 120.31 123.07"><defs><style>.cls-1{fill:none;stroke:#fff;stroke-miterlimit:10;}</style></defs><title>Arrow-white</title><g id="Layer_2" data-name="Layer 2"><g id="Layer_2-2" data-name="Layer 2"><path class="cls-1" d="M86.18,4C67.77,21.78,57.7,29.23,51.78,32.64c-2.06,1.19-7.55,5.88-14.51,12.93a21.84,21.84,0,0,0-6,9.35c19.07-15.71,36.41-38.35,56-51.5A36.22,36.22,0,0,0,70.46,9.09C64.44,12.84,61,17,56.88,21.32,36.29,42.76,22.77,41.8,22,53.69c-.18,2.88.32,7.48,4.37,13.91-2.15,6.61-3.72,7.26-4.52,7.16-2.28-.27-1.22-9.85-5.79-11.81-2.84-1.22-5.09,1.7-9,.69-3.17-.82-5.21-3.66-6.44-6C3,55.57,5.37,53.32,7.8,50.88c3.1-3.1,5.91-6.15,8.45-9.09a46.9,46.9,0,0,1,21.92-2.85c8.07.91,8.85,3.91,14.21,4.48,6.22.65,15.15-2.34,26.52-19.33a74.46,74.46,0,0,0-28.6,1.19c-14,3.31-25.53,10.12-34,16.51A352,352,0,0,1,53.83,21a305.25,305.25,0,0,1,57-20.54,212.45,212.45,0,0,0-54,20.83A277.17,277.17,0,0,0,6.67,56.93c17.36,10.3,30.64,18.51,39.39,24,11.2,7,18.91,12,30.47,15.4,10.32,3,18.19,3.19,18.18,3.5,0,.48-15.52,0-33.53-3.43,0,0-31.55-6-40-16.15a13.32,13.32,0,0,0-3-2.85c-.16-.1-.64-.41-1.27-.89a8,8,0,0,1-1.62-1.42c-.48-.65-.44-1.1-.73-2.47-.59-2.72-1.24-3.18-.85-3.86.56-.95,2.36-.86,2.91-.83a7.74,7.74,0,0,1,4.55,1.78c22.61,24,49.46,30.87,73.65,48.89a22.57,22.57,0,0,0,12.28,4,14.5,14.5,0,0,0,11.62-7.06,5.68,5.68,0,0,0,1-3.44,4.39,4.39,0,0,0-2.44-3.27c-5.33-3.16-40.19,2.5-60.34-3.88-14-4.44-19.59-14.28-35.41-22.45-.35-.18-.87-.45-1.5-.84a21.69,21.69,0,0,1-6.23-6.13c-2.76-3.77-2.79-4.61-4.88-7.57a44,44,0,0,0-5.9-6.75L21,56.89"/></g></g></svg>