<svg xmlns="http://www.w3.org/2000/svg" viewBox="0 0 715.93 510.43"><defs><style>.cls-1{fill:none;stroke:#000;stroke-miterlimit:10;}</style></defs><title>barbara</title><g id="Layer_2" data-name="Layer 2"><g id="Layer_3" data-name="Layer 3"><path class="cls-1" d="M182.24,336.9l-3.56.1c-7.68-4.87-19.19-2-23.63,6s-.9,19.27,7.26,23.26a204,204,0,0,0-5.43,28.93c-1.46,12.87-2.54,22.38-.43,34.75,1.25,7.36,3.43,19.37,12.16,31.71,3.91,5.53,12,16.94,25.82,21.17,2.37.73,6.58,1.32,15,2.51a190.91,190.91,0,0,0,21,2.11,159.55,159.55,0,0,0,19.38-.59c14-1.05,24-1.8,36.06-5.22,12.5-3.53,18.75-5.3,24.83-10.66,12.17-10.73,14.54-26.81,15.18-32.07.69-5.53.3-10,.58-18.7.19-5.91.51-8.57.73-12.41.35-6.23.67-15.21.38-26.5,2.63-.5,17.72-.25,20.66.44a128.07,128.07,0,0,0-.68,15.63c.06,3.74.48,8.08,1.3,16.62,1.39,14.36,2,16.53,3,19,2.07,4.75,2.92,3.6,6.08,10,3.49,7.05,3.09,9.74,6.39,14.73,1.93,2.92,3.78,4.58,7.52,7.86,11.19,9.82,16.72,14.83,18.24,15.64,7.88,4.21,17.81,4.75,37.36,5.65a273.49,273.49,0,0,0,33-.44c13.61-.83,18.32-1.92,23-3.91,3.8-1.6,11.19-4.83,17-12.16,1.68-2.13,4.6-6.36,9.13-26.93a219.33,219.33,0,0,0,4.13-22.31c1.9-15.28,3.38-27.26.93-42-1.54-9.26-3.71-14.12-1.27-21.26,2-5.81,5.3-8.52,4.23-12.65-1.12-4.35-6.19-6.15-10.54-7.26-5.6-1.44-13.5-1.65-15,3.92a22.46,22.46,0,0,1-7-.66c-2.38-.61-2.88-1.18-6.84-2.6-2.11-.77-3.69-1.22-6.84-2.12,0,0-4.19-1.2-8-2.12-13.28-3.2-35.19-.81-35.19-.81-18.27,2-14.44-1.34-43.23-.14-26.09,1.09-27.59,3.76-51.57,3.88-14.7.08-29.16-.65-29.16-.65-11.51-.58-11.91-1-21.67-1.3-19-.61-19.6.88-28.18-.33a71.79,71.79,0,0,0-16-.65c-1.71.13-1.4.17-3.67.36-6.68.56-9.54.22-16.86.29-4.17.05-7.5.08-12,.49-6.48.59-6,1.08-10.91,1.31C191.44,336.9,189.66,336.72,182.24,336.9Z"/><path class="cls-1" d="M189,340.08l1.17-1.14c-.07-.52-.77-.64-1.29-.58a9.36,9.36,0,0,0-7.31,5.31,2.49,2.49,0,0,0-.23,1.95,2.37,2.37,0,0,0,.87,1c3.16,2.35,7.5,2.05,11.26,3.23,1.89.59,3.94,2.12,3.56,4.07s-2.6,2.57-4.44,2.45a10.15,10.15,0,0,1-4.73-1.54,17.32,17.32,0,0,0,13.78-4.63,7,7,0,0,0,2-2.87A3.27,3.27,0,0,0,203,344a4.16,4.16,0,0,0-2.27-1,11.11,11.11,0,0,0-10.24,4,2,2,0,0,0-.59,1.5c.16,1,1.42,1.25,2.39,1.2a12.37,12.37,0,0,0,6.45-2.29c-1.63-1.23-3.89-.93-5.93-.88a20,20,0,0,1-7.35-1.21,2.1,2.1,0,0,1-1.4-1.1c-.32-1,.75-1.79,1.68-2.21,4.49-2,9.42-2.87,14.29-3.69a34.61,34.61,0,0,0-11.62.37c-2.45.49-5,1.32-6.63,3.17a2.07,2.07,0,0,0-.65,2.15,2.29,2.29,0,0,0,1.67,1,39.24,39.24,0,0,0,15.46.26,9.61,9.61,0,0,0,3.73-1.19,3.69,3.69,0,0,0,1.82-3.28,2.08,2.08,0,0,0-.86-1.53,2.83,2.83,0,0,0-1.8-.28,10.16,10.16,0,0,0-5.31,2.13c-1.27,1-2.35,2.58-1.93,4.13.52,2,3,2.59,5,2.5a3.35,3.35,0,0,0,1.71-.44,1.32,1.32,0,0,0,.58-1.54,1.67,1.67,0,0,0-1-.81,5.86,5.86,0,0,0-6.36,1.8,2.85,2.85,0,0,0-.72,2.36c.32,1.28,1.85,1.83,3.16,1.89a9.57,9.57,0,0,0,5.74-1.61"/><path class="cls-1" d="M232.79,335.24a28.53,28.53,0,0,0,15.79,6,13.63,13.63,0,0,0,6.09-.79,1.18,1.18,0,0,0,.68-.53c.3-.64-.52-1.2-1.19-1.43a51.64,51.64,0,0,0-17.79-2.65c-.67,0-1.49.16-1.68.8s.4,1.2.95,1.56a14.33,14.33,0,0,0,10.71,2,1,1,0,0,0,.79-.48c.15-.4-.22-.79-.56-1a15.7,15.7,0,0,0-10.26-3c-.23.39.32.78.76.91a31.7,31.7,0,0,0,12.48,1.09c.84-.1,1.94-.62,1.67-1.42a1.46,1.46,0,0,0-.88-.74,22.08,22.08,0,0,0-13.89-1.16"/><path class="cls-1" d="M158,352.4c3.42,0,7,.92,9.37,3.4,3.39,3.6,3.22,9.18,2.83,14.11-.12,1.55-.73,3.58-2.29,3.54a2.86,2.86,0,0,1-2-1.26A18.12,18.12,0,0,1,163.8,369a.84.84,0,0,1,.37-1.34c1.82-1.22,3.85-2.15,5.45-3.64s2.73-3.79,2-5.87c-.78-2.36-3.5-3.46-6-3.78a6.4,6.4,0,0,0-3.42.29,2.82,2.82,0,0,0-1.79,2.72c.18,1.59,2,2.41,3.49,2.85.65.19,1.48.31,1.89-.23s0-1.45-.67-1.72a3.62,3.62,0,0,0-2.11.06c2.41,3.56,6.7,5.3,9.86,8.22a2.69,2.69,0,0,1,1.1,2,2.73,2.73,0,0,1-1.49,1.89,19.9,19.9,0,0,1-4.63,2.21,3.28,3.28,0,0,0,1.68.95c.65.07,1.39-.44,1.3-1.08a1.41,1.41,0,0,0-.44-.76c-2.6-2.79-7-3-9.94-5.53,2.08-1.45,4.24-3,5.34-5.28a11.25,11.25,0,0,1,1.34-2.66"/><path class="cls-1" d="M162.54,398.31a1.09,1.09,0,0,0,1-1,1.88,1.88,0,1,0,.29,3.51,3.24,3.24,0,0,0,.21,4.22,1.92,1.92,0,0,0,0-2.62c.91.63,2.19-.53,2.1-1.64a4.45,4.45,0,0,0-1.8-2.7,6.72,6.72,0,0,0-.2,2.52,2.31,2.31,0,0,0,1.48,1.9,1.44,1.44,0,0,0,1.84-1.2,1.65,1.65,0,0,0-1.26-1.4"/><path class="cls-1" d="M168.19,425.34c-.19-.23.3-.51.5-.29a.87.87,0,0,1,.05.86,18.21,18.21,0,0,0-1,5.29,6,6,0,0,0,2.13,4.77,3.64,3.64,0,0,0,4.87-.39,16.45,16.45,0,0,0-1.39,5.38,5.54,5.54,0,0,0,2.25,4.84,7,7,0,0,1,1.71,1.1c1.07,1.18.36,3.11.92,4.6a4.31,4.31,0,0,0,3.17,2.34c1.33.33,2.72.35,4,.75.67.21,1.4.64,1.44,1.34a2,2,0,0,1-.45,1.17l-3.4,5.19c-.49.74-1.24,1.59-2.09,1.34a2.06,2.06,0,0,1-1.09-1.25,20.91,20.91,0,0,1-1.76-7.22c-.15-2.53-.24-5.75-2.61-6.66a2.59,2.59,0,0,1-1.18-.59c-.48-.61,0-1.47.22-2.21a3.5,3.5,0,0,0-3.12-4.31c1.42-1.34,1.16-3.63.79-5.56-.15-.82-.31-1.63-.47-2.45s-.67-2.16-1.64-2.07l2-3.86a3.82,3.82,0,0,0-2.9-.39,2,2,0,0,0,.91-3l1.93-.66"/><path class="cls-1" d="M312.53,396.13a18.07,18.07,0,0,1,6.73,3.29,2.08,2.08,0,0,1,1,1.46,1.91,1.91,0,0,1-.57,1.22c-1.86,2.12-4.82,2.94-6.88,4.86a1.1,1.1,0,0,0-.42.67,1,1,0,0,0,.29.64c1.34,1.44,4.22.72,5.2,2.42a3.2,3.2,0,0,1,.05,2.47c-.83,2.74-2.75,5-4.35,7.35s-2.95,5.2-2.39,8q-.12-5.79-.25-11.58a.88.88,0,0,1,.14-.6.83.83,0,0,1,.46-.22l5.09-1.29c-.21-1-1.84-.09-2.71-.57-.66-.37-.59-1.33-.42-2.06.63-2.78,1.33-5.7,3.28-7.78.78-.84,1.83-1.91,1.31-2.93-.31-.61-1-.83-1.68-1.08a8.36,8.36,0,0,1-4-3.27,3,3,0,0,1,3.38,2.11,4.79,4.79,0,0,1-1,4.14,14.35,14.35,0,0,1-3.32,2.88,10.09,10.09,0,0,1,4.2-1.11,12.12,12.12,0,0,0-1,5.18,5.57,5.57,0,0,1-.34,3c-.72,1.26-2.51,1.64-3.12,2.95a5.91,5.91,0,0,0,1.94-11.5,1.16,1.16,0,0,1-.76-.49,1.06,1.06,0,0,1,.16-.9c.67-1.29,1.34-2.58,2-3.87a1.18,1.18,0,0,0,.19-.67c-.09-.51-.78-.64-1.29-.54a4.32,4.32,0,0,0-2,1"/><path class="cls-1" d="M324.52,437.76c.08-.79-1.19-.77-1.86-.34a10.75,10.75,0,0,0-4.83,9.59c.28,4,2.8,8,1.35,11.77-1,2.48-3.43,4-5.85,5.14a2.4,2.4,0,0,1-1.68.31c-.55-.18-.89-1-.45-1.36"/><path class="cls-1" d="M323.22,439.76l-2.81,3.34a4,4,0,0,0-1.15,2.12A3.25,3.25,0,0,0,321,448a22.12,22.12,0,0,1,2.89,1.84,1.62,1.62,0,0,1,.56.89,2,2,0,0,1-.73,1.56l-5.28,5.77"/><path class="cls-1" d="M323.85,438.8l-4,2.15a3.81,3.81,0,0,0-1.73,1.43c-.81,1.56.74,3.26,2.15,4.31.5.37,1.07.87,1,1.5s-.66.9-1.12,1.25a4.75,4.75,0,0,0-1.81,4.37c.15,1.08.69,2.13.54,3.2a5.29,5.29,0,0,1-1.31,2.45l-2.9,3.65"/><path class="cls-1" d="M324.12,441.64a49.42,49.42,0,0,0-9,7.53,3.78,3.78,0,0,0-1.29,2.43c0,.94,1.09,1.86,1.88,1.36-1.29,1.23-2.63,2.56-3,4.29s.58,3.92,2.35,4.08c.62.05,1.55.15,1.44.76a1,1,0,0,1-.44.52l-3.18,2.26a2.11,2.11,0,0,0,2.71-.48"/><path class="cls-1" d="M315.38,457.39a12.41,12.41,0,0,0,5.92-6.2.76.76,0,0,0,.08-.58c-.12-.26-.47-.31-.75-.31a25.51,25.51,0,0,0-6.9.93c4.08-.53,6.54-4.74,10.07-6.86.3-.19.64-.4.69-.75.08-.53-.56-.85-1.08-1a37.31,37.31,0,0,0-6.38-1.08q2.85-1.31,5.57-2.87a4.19,4.19,0,0,0-4.2.83,3.1,3.1,0,0,0,2.78-.48"/><path class="cls-1" d="M316.68,378.13c.21,1.85,2.27,3.05,4.13,2.94a9.57,9.57,0,0,0,5-2.31,42.52,42.52,0,0,0,7.83-7.8c-5.14.49-9.78,3.22-14.76,4.57a1.26,1.26,0,0,1-1.66-.54l-3.08-3.79a1,1,0,0,1-.28-.61c0-.28.27-.48.5-.64a14.56,14.56,0,0,1,5.82-2.67,6.38,6.38,0,0,1,5.88,1.87c1.39,1.65,1.39,4.45-.31,5.77a6.66,6.66,0,0,1,1.39-.76c.46-.27.78-1,.39-1.32a1.13,1.13,0,0,0-.75-.21l-12.12-.39a1.76,1.76,0,0,1-.94-.21,1.54,1.54,0,0,1-.51-1.29,7.59,7.59,0,0,1,2.11-5,22.39,22.39,0,0,1,4.35-3.51l-1.42,2.15c-.23.35-.64.75-1,.54a.84.84,0,0,1-.3-.47c-.48-1.25-.95-2.51-1.43-3.77a2.48,2.48,0,0,0,.25,3.35,7.27,7.27,0,0,0,3.3,1.62,11.83,11.83,0,0,0-5,8.15,1.13,1.13,0,0,0,.12.85,1.09,1.09,0,0,0,.92.3,18.79,18.79,0,0,0,3.88-1,23.89,23.89,0,0,1,4.7-.59l8.94-.52c0,.89-1,1.41-1.86,1.69a34.08,34.08,0,0,1-7.86,1.6,3.49,3.49,0,0,1-1.61-.14,2.47,2.47,0,0,1-1.27-2.54,7.18,7.18,0,0,1,1.13-2.79c.74.45.14,1.59-.53,2.13a12.6,12.6,0,0,1-3.65,2,1.76,1.76,0,0,1-1.08.12c-.74-.24-.89-1.22-.85-2a18.08,18.08,0,0,1,2.2-7.72"/><path class="cls-1" d="M511,393.74a60.18,60.18,0,0,0,1.59,20.49"/><path class="cls-1" d="M511.16,397.08c1.85-.51,4.19-.88,5.38.62a4.34,4.34,0,0,1,.61,3.17A18.09,18.09,0,0,1,510.7,413a38.31,38.31,0,0,1-.64-8.35,9.72,9.72,0,0,1,1.3-5.16c1.43-2.1,4.07-2.94,6.51-3.63a15.5,15.5,0,0,1-8.38,1,10.74,10.74,0,0,0,5.34,12.92"/><path class="cls-1" d="M506.17,450.42a81.21,81.21,0,0,0-12.6-7.73l8-2.47a4.26,4.26,0,0,0,1.78-.88,1.45,1.45,0,0,0,.3-1.8,2,2,0,0,0-1-.63,19.65,19.65,0,0,0-8-.92,2.44,2.44,0,0,0-1.72.68c-.73.92.08,2.27,1,3,3.88,3.21,9.71,3.53,13.15,7.21a1.43,1.43,0,0,1,.44.78,1.06,1.06,0,0,1-.93,1.05,2.85,2.85,0,0,1-1.51-.28,32.64,32.64,0,0,1-9.43-5.61c-1.82-1.55-3.58-3.59-3.46-6a2.72,2.72,0,0,1,.66-1.77c.94-1,2.56-.74,3.87-.37a56.63,56.63,0,0,1,12.9,5.48,3,3,0,0,0-1.41-1.91l-9.59-7.37c3.18-.91,6.5-1.89,8.91-4.16-.44-.66-1.47-.35-2.14.08a17.11,17.11,0,0,0-7.4,10.52,2.12,2.12,0,0,0,0,1.51,2.2,2.2,0,0,0,2,.76,23.11,23.11,0,0,0,5.67-.7,12,12,0,0,1,3.45-.61,3,3,0,0,1,2.81,1.76,2.72,2.72,0,0,0,0-2.08,46.45,46.45,0,0,0-8.43-16.84,3.54,3.54,0,0,0,2.18,5c-.57-.56-.58-1.48-1-2.16s-1.78-.79-1.77,0"/><path class="cls-1" d="M481.74,463.77c-.07-.33-.66-.09-.61.24s.41.52.72.64c5.07,1.9,11.27,1.6,15.07,5.45a3.59,3.59,0,0,1,1.15,2.06c.23,2.09-2.27,3.33-4.35,3.63A22.86,22.86,0,0,1,479,473a57,57,0,0,0,13.81-.15,4.32,4.32,0,0,0,3.09-1.37,3,3,0,0,0-.06-3.18,8.73,8.73,0,0,0-2.37-2.36,9.61,9.61,0,0,0-3.64-2c-3.1-.65-6.27,2.23-6.32,5.4a7.11,7.11,0,0,0,5.69,6.66c2.17.46,4.64.05,6.45,1.33a1.41,1.41,0,0,1,.72,1.15,1.45,1.45,0,0,1-.57.93c-2.35,2.16-5.93,2.38-9.05,1.74a8.17,8.17,0,0,1-4.21-1.93,3.81,3.81,0,0,1-1-4.28,4,4,0,0,1,3.17-1.91,11.54,11.54,0,0,1,3.82.46l4.86,1.14c2.76.65,5.91,1.23,8.25-.38,2.93-2,2.86-6.77.45-9.37s-6.34-3.3-9.85-2.74a16.87,16.87,0,0,0,4.68-5.3c.88-1.57,1.75-3.48,3.51-3.87,2.76-.62,5.72,3.05,8,1.42"/><path class="cls-1" d="M359,403.27a37.73,37.73,0,0,0-5.11,10.9,6.55,6.55,0,0,0-.33,2.66,4.51,4.51,0,0,0,2.93,3.36,9,9,0,0,0,4.61.29l-3,7.16a7.87,7.87,0,0,1-.89-9.33c.59-.92,1.37-1.72,1.87-2.69a5.49,5.49,0,0,0-.69-5.91,3.58,3.58,0,0,0-2.91-1.38,2.14,2.14,0,0,0-2,2.24,22.44,22.44,0,0,0,4.37-3.06c.5,2.13-.34,4.32-.83,6.46s-.47,4.73,1.23,6.11c1.3,1.05,3.13,1,4.78,1.3a1.15,1.15,0,0,1,.66.24c.51.45.09,1.26-.31,1.81a15.29,15.29,0,0,0-2.41,5.19c-.17.69,0,1.74.7,1.68a7.53,7.53,0,0,0-.26-4.61c-.9-3.26-1.94-6.49-3.11-9.66-.71-1.92-1.64-4-3.52-4.78a24.46,24.46,0,0,0,4.73-4.64"/><path class="cls-1" d="M362.83,444.52c-.55,3.21,1.86,6.1,4.1,8.46l19.74,20.83c1.11,1.17,2.45,2.43,4.06,2.3A26.85,26.85,0,0,0,384,464a101.7,101.7,0,0,0-10.39-9.38q-5.12-4.28-10-8.81a.64.64,0,0,0,.2,1.05"/><path class="cls-1" d="M452.59,474.57a29,29,0,0,0,6.42,1.32,9.87,9.87,0,0,0,6.26-1.56c-2.21-1.4-5-1.34-7.59-.74s-4.95,1.67-7.51,2.19a24,24,0,0,1,11.87-2c1.5.13,3.11.38,4.41-.38l-15.59,1.53"/><path class="cls-1" d="M424.59,475.34a6.47,6.47,0,0,0,8.25,1.69,48.79,48.79,0,0,0-7-1.72l5.67-.77a35,35,0,0,0-5.41.18,9.4,9.4,0,0,0,4.28-.31,3.21,3.21,0,0,0-3.88,1.49c.45.8,1.59.73,2.49.55l2.83-.57a3,3,0,0,0-3.83-.49,1.68,1.68,0,0,0,1.17,0,.7.7,0,0,0,.32-1,1.05,1.05,0,0,0-1-.19c-1.11.17-2.22.4-3.31.67a10.67,10.67,0,0,0,9.37-.11.75.75,0,0,0-1-.07,4.85,4.85,0,0,0,3.06,0,4.08,4.08,0,0,1,1.35-.35c.46,0,1,.35.94.81a20.49,20.49,0,0,0-5.64,1.14,1.08,1.08,0,0,0,.29-1.14"/><path class="cls-1" d="M275.55,348.65c2-1.06,4.25-2.15,6.46-1.61s3.73,3.64,2,5.16c-.26.23-.6.47-.58.82s.74.31.57,0"/><path class="cls-1" d="M296.09,352.39a19.83,19.83,0,0,1,3.29,7.8"/><path class="cls-1" d="M420.05,339.28c1.74,3.49,6.41,4.1,10.3,4s8.38-.29,11,2.59a15.54,15.54,0,0,0,2,2.31,6,6,0,0,0,3.24.94,19.56,19.56,0,0,0,17.23-8.63,2.41,2.41,0,0,0-2.79-.94,10.09,10.09,0,0,0,8.41-.73"/><path class="cls-1" d="M370.5,345.51a23.63,23.63,0,0,0,12.37-9.73A123.64,123.64,0,0,0,361,340.56a3.18,3.18,0,0,0-1.29.63c-1,.9-.47,2.68.65,3.42a6.69,6.69,0,0,0,3.89.72l13.28-.28"/><path class="cls-1" d="M405.57,342.6a61.51,61.51,0,0,0-15.43,6.29l3.42.48a84.81,84.81,0,0,0-12.86,5,69.38,69.38,0,0,1,27.94-9.62c1.53-.17,3.26-.24,4.41.79.93.83,2.15,2.37,3,1.43"/><path class="cls-1" d="M505.26,347.16c-.57-1-1.13-1.94-1.7-2.9,1.93-1.26,4-2.56,6.33-2.51s4.7,2.12,4.16,4.36a4.7,4.7,0,0,1-1.65,2.34,11.75,11.75,0,0,1-11.25,2.11c4.45-2.7,11.53-1.28,14-5.86-.26,2.85-.51,5.71-.77,8.56a4.1,4.1,0,0,0-.08-4.66,9.34,9.34,0,0,0-3.87-3,27.9,27.9,0,0,0-9.75-2.77"/><path class="cls-1" d="M433,342.59c2.53-2.33,6.4-2.44,9.76-1.73s6.59,2.12,10,2.36A15.14,15.14,0,0,0,465,338.09"/><path class="cls-1" d="M229.5,478.29c.57-1.08,2.16-1.15,3.2-.53a12.14,12.14,0,0,1,2.55,2.56c2.46,2.69,6.26,3.85,9.91,3.88a40,40,0,0,0,10.75-1.89,38.82,38.82,0,0,0,4.52-1.41"/><path class="cls-1" d="M232.91,478.16l21-2.54a3.84,3.84,0,0,1,2.13.14,3.9,3.9,0,0,1,1.64,2.24l3.33,8.21L243.7,478.4a8.88,8.88,0,0,0-4-1.08c-2.67.16-4.52,2.59-6.58,4.29A14.25,14.25,0,0,1,221,484.49a3.56,3.56,0,0,1-2-1,3.23,3.23,0,0,1-.64-2.19,7.59,7.59,0,0,1,6.68-7.21"/><path class="cls-1" d="M284.39,467.11a2.06,2.06,0,0,0-1.42,1.33,12.69,12.69,0,0,0,9.79-.08,34.32,34.32,0,0,0,8.53-5.26,16.58,16.58,0,0,1-19.62,6c-1.08-.45-2.29-1.48-1.82-2.55a2.26,2.26,0,0,1,1.25-1,15,15,0,0,1,6.08-1.23,2,2,0,0,1,1.27.34c.7.63.24,1.78-.28,2.57-2.93,4.49-6.91,9.07-12.25,9.52a2.36,2.36,0,0,1-1.46-.23c-1-.63-.78-2.18-.3-3.29a20.35,20.35,0,0,1,14.73-11.66"/><path class="cls-1" d="M361.85,367.89c.4-.17.07-.87-.37-.85s-.75.41-1,.77c-1.34,1.95-2.72,4-2.86,6.4s1.46,5,3.82,5.07a2.05,2.05,0,0,0,1.88-.89c.51-.92-.12-2.08-.92-2.77a9.41,9.41,0,0,1-2.29-2.15c-1-1.83.45-4.07,2.13-5.31s3.74-2.15,4.72-4a4.69,4.69,0,0,0-2.51-6.34"/><path class="cls-1" d="M331.56,346.52c0-2.36,1.75-4.44,3.86-5.5a19.11,19.11,0,0,1,6.87-1.54,1.57,1.57,0,0,0,1.81,1.79c-4.05,1.27-8.7,2.48-12.31.26-.87-.53-1.63-1.24-2.54-1.69a4.17,4.17,0,0,0-4.58.46,3,3,0,0,0,0,4.3,4.68,4.68,0,0,0,2.37.79,37,37,0,0,0,14.59-1,22.7,22.7,0,0,0-9.27-8.48,3.48,3.48,0,0,0,1.56,2.83"/><path class="cls-1" d="M494.83,363.44c2.71.57,6-1,8,.88,1.78,1.66.27,5.29-2.16,5.2-.57,1.31,1.41,2.08,2.75,2.57,2.32.85,3.83,3.06,5.17,5.13a4.52,4.52,0,0,1,.74,1.53c.42,2.11-2.63,3.58-4.47,2.46s-2.34-3.61-2-5.74,1.28-4.1,1.68-6.22A12.08,12.08,0,0,0,491,355"/><path class="cls-1" d="M271,349.28l4.5-1.7c3-1.11,7-1.87,8.6.85a4.28,4.28,0,0,0-2.16,2.25c5.37.71,10.78,1.16,16.2,1.37a8.68,8.68,0,0,0-2.88,2.53,3,3,0,0,0,.14,3.59c.95.94,2.48.81,3.78,1.13s2.55,1.92,1.62,2.88"/><path class="cls-1" d="M500.1,429.78a93.87,93.87,0,0,0,15.8,6c5.47,1.36,11.32,1.72,16.72.08"/><path class="cls-1" d="M548.5,478.1c-.66,4.51,1.37,9.11,4.51,12.4s7.28,5.46,11.5,7.18a75.78,75.78,0,0,0,22,5.29c6.87.59,14.16.14,20-3.52"/><path class="cls-1" d="M586.52,474.22c.64,4.84,1.3,9.74,3.18,14.25s5.13,8.65,9.65,10.5c4.17,1.72,8.95,1.32,13.25-.06,3.3-1.06,6.54-2.77,8.57-5.58,2.24-3.07,2.76-7.06,2.71-10.85"/><path class="cls-1" d="M614,485.72c4.39-4.44,8.77-9.14,11.09-14.94s2.15-13-2-17.7"/><path class="cls-1" d="M623.61,451.05c-.25-.14.08-.56.35-.45s.35.44.38.73c.63,5.14-2.6,10-6.51,13.43-3.2,2.79-7.23,5.41-7.94,9.59-.54,3.19,1.11,6.38,3.29,8.77s4.9,4.22,7.2,6.49c.88.88,1.76,2,1.6,3.23-.19,1.44-1.67,2.3-3,2.85a34.27,34.27,0,0,1-25.63.05"/><path class="cls-1" d="M565.16,432c-4.67,2-7.27,7-8.74,11.84-2.34,7.71-2.69,16.37.9,23.59,4.49,9,14.75,14.39,24.83,14.41"/><path class="cls-1" d="M559.55,462.49c-.13-4.83-1.15-9.63-1-14.46s1.75-10,5.67-12.81c3.23-2.33,7.43-2.7,11.4-3"/><path class="cls-1" d="M571.67,423.52c4.24-6.64,12.68-8.95,20.35-10.73,1.65-.39,3.46-.75,5,0,1.13.58,2,1.73,3.2,2,1.84.4,4.2-1.21,5.41.24a4.45,4.45,0,0,1,.62,2.12c.85,4.58,6.55,6,10.29,8.78a2.64,2.64,0,0,1,1.31,2c-.05,1.31-1.64,1.87-2.57,2.78-1.93,1.9-.85,5.13.37,7.54,3.8,7.49,8,15.15,8.35,23.54s-4.76,17.7-13.07,18.89"/><path class="cls-1" d="M94.37,421.15c4.15,4.07,12.42,4.18,14.73,9.31,1.55,3.41-.5,7.34.31,11,.77,3.45,4.06,6.24,4.21,9.75s-2.83,6.38-4.08,9.68c-2,5.25.6,11.09,4.34,15.49"/><path class="cls-1" d="M104.28,433.12a49.75,49.75,0,0,1,24.56,17.09c1.49,2,2.85,4.32,2.28,6.65-.45,1.82-2,3.24-3.58,4.43a40.14,40.14,0,0,1-16.16,7.17"/><path class="cls-1" d="M79.09,406.62l-5.58-6.24a54.94,54.94,0,0,0,21.61,11.46l-10.35-2.49"/><path class="cls-1" d="M50.84,406.91c-5.43,3.22-7.9,9.18-10,14.74-2,5.3-3.92,11.66-.17,16.13,1.62,1.92,4.29,3.64,3.94,6-.47,3.17-5.49,3.65-7.65,6.17-1.89,2.2-1.1,5.51.72,7.75s4.48,3.79,6.7,5.72a20.36,20.36,0,0,1,7.09,16.39"/><path class="cls-1" d="M33.43,445.58c-2,10.88-2.75,22.85,3.81,32.13,5.88,8.32,16.53,12.8,27,15.47"/><path class="cls-1" d="M36.6,429.86a8.9,8.9,0,0,1,5.68-3.5c-2,5.86-9.13,9.1-12,14.67-2.16,4.28-1.47,9.24-.73,13.89,1,6.34,2.05,12.81,5.29,18.5a36.82,36.82,0,0,0,10.33,11.17c5.89,4.36,13.82,7.61,21,5.35"/><path class="cls-1" d="M58.35,414.3c4,1.33,8.28-1.1,11.66-3.47,3.84-2.7,7.66-5.54,10.38-9.19a4.44,4.44,0,0,1,2.57-2.1,4.61,4.61,0,0,1,1.69.15l8.6,1.9a13,13,0,0,1,3.49,1.12,7.39,7.39,0,0,1,3.52,5.12,20.14,20.14,0,0,1,0,6.2"/><path class="cls-1" d="M362.35,406c.2,8.67.71,23,9.56,38.23,3.21,5.55,12.44,21.46,30.4,27.8,5.29,1.86,14.1,1.82,31.71,1.74,18.44-.09,27.77-.19,33.23-2.75,12.15-5.68,18.36-16.64,24.11-26.79a90.78,90.78,0,0,0,9.56-25.2c2.9-12.28-1-12.29,1.3-29.54,1.11-8.42,2.48-12.79,0-18.24-1.55-3.43-4.32-6.6-10.3-10.19-12.41-7.46-24.95-8.54-30.53-8.92-47.95-3.27-52.6-6.58-66.7-1.27-6.61,2.49-15.29,5.76-22.35,14.3C361.69,378.06,362.07,394,362.35,406Z"/><path class="cls-1" d="M299.36,363.88c-15.45-16.91-39.71-15.64-64.72-14.33-19.26,1-44,2.3-56,20-6.16,9-6.32,18.33-6.51,29.54-.21,11.66-.89,50.78,25.19,67.76,13.64,8.89,29.22,6.94,60.38,3.05,20.64-2.58,33.76-4.42,43.17-15.17,8.45-9.64,9.3-21.2,10.26-34.35C312.35,403.19,314.05,380,299.36,363.88Z"/><path class="cls-1" d="M42.22,428.39c2,3,1,6.92-.32,10.24A68,68,0,0,1,31,456.85c.94-3.35,3.41-6.14,5.27-9.16a27.57,27.57,0,0,0,4-17.57,116.46,116.46,0,0,1-3.79,23.55c-.61-3.81.35-7.68,1.5-11.39a106.23,106.23,0,0,1,5.9-14.91,114.73,114.73,0,0,0-11.12,22.07"/><path class="cls-1" d="M51.36,458a48.63,48.63,0,0,1,7.78,27.44A10.89,10.89,0,0,1,57.71,480q-.65-7.81-1.3-15.61,3.51,12.25,6.1,24.71"/><path class="cls-1" d="M79.92,474.56l31.69-.68a23.55,23.55,0,0,0,6.34-.7,7.27,7.27,0,0,0,4.7-3.66.84.84,0,0,0,.08-.41c0-.44-.68-.57-1.17-.58A50.66,50.66,0,0,0,97.3,474c-.26.65.94.89,1.68.71a57.33,57.33,0,0,0,17.15-7.2"/><path class="cls-1" d="M100.46,455.92c3.69.5,7.17-1.64,9.91-3.94a47.45,47.45,0,0,0,7-7.26c.37-.47.67-1.24.12-1.53a1.24,1.24,0,0,0-1.17.21,22.6,22.6,0,0,0-5.9,4.94,89.6,89.6,0,0,0,8.93-15.67"/><path class="cls-1" d="M103,427a16.49,16.49,0,0,0,2.7-7.37,7.74,7.74,0,0,0-1.23-5.66,4.87,4.87,0,0,0-5.68-1.55"/><path class="cls-1" d="M85.52,407.17c1.86-.84,3.93.51,5.47,1.87,8.29,7.28,14.92,16.83,17.42,27.66s.51,22.93-6.48,31.51C99.39,471.33,96,474,92,474.5a18.8,18.8,0,0,1-6.92-.89A92.55,92.55,0,0,1,60.6,462.87c-3.78-2.36-7.54-5.17-9.44-9.22a21.08,21.08,0,0,1-1.69-7.94c-.61-11.62,3.37-23.64,11.63-31.72S82,402.32,92.92,406l-8.28.42"/><path class="cls-1" d="M42.53,419.43q-3,6.72-6,13.44c-2.15,4.85-4.32,9.75-5.16,14.93s-.22,10.72,2.87,15.13c2.91,4.16,7.69,6.92,12.43,9.33a178.75,178.75,0,0,0,34.67,13.23c.72.19,1.58.52,1.65,1.2s-.49,1-1,1.36L70.6,496.12c4.85.47,9-2.83,13.3-4.88,7.09-3.37,15.47-3.48,23.12-5.59s15.45-7.73,14.84-15c-.35-4.15-3.39-7.66-6.29-10.88a15,15,0,0,0,13.11-4.34A11.9,11.9,0,0,0,131,443c-3-7.35-12.79-10.69-16.87-17.61a19.8,19.8,0,0,0-2.31-3.75c-.75-.81-1.72-1.44-2.45-2.27-1.6-1.84-1.77-4.39-3-6.44-2.1-3.5-6.91-5-11.3-4.93s-8.66,1.26-13,1.71-9.21,0-12.37-2.8"/><path class="cls-1" d="M77.79,471.56q-2.12,9.17-4.24,18.33a17.64,17.64,0,0,1,7-10.29,22.53,22.53,0,0,1-2.92,12.09c-.9-4.73.41-9.56.53-14.37S76.71,467.09,72,464.83"/><path class="cls-1" d="M40.75,427.28A29.68,29.68,0,0,1,47,414.39a50.14,50.14,0,0,1,12.07-9.94,19.16,19.16,0,0,1,6.68-3,22.08,22.08,0,0,1,7.46.38l15,2.49c-4.76,2.28-10.45,2-15.8,1.54s-10.93-1.09-16,.6-9.27,6.56-7.83,11.26a161.88,161.88,0,0,1,28.66-14.42"/><path class="cls-1" d="M36,466a34,34,0,0,0,12.23,19.33c2.63,2.08,5.68,4,7.12,6.83,1.73,3.43.86,7.74,3.25,10.83,2.26,2.92,6.84,3.7,10.65,2.8s7-3.15,10.14-5.35l10.83-7.64c3.48-2.46,7.27-5.41,7.56-9.4-4.43,4-9,8-14.6,10.4s-12.65,2.88-17.86-.21c-9.77-5.8-8.27-20.13-17-27.19a8.51,8.51,0,0,1,6.71-2"/><path class="cls-1" d="M580.8,422.41a2.46,2.46,0,0,0,1.28-2.14c-6,1.76-10.9,5.87-15.48,10.08-6.11,5.62-12,11.77-15.42,19.34s-4,16.83.27,23.94c3.94,6.51,11.44,10.29,19,11.21s15.2-.7,22.47-3a126.32,126.32,0,0,0,17.76-7.07,27,27,0,0,0,6.71-4.25c3.73-3.47,5.46-8.59,6.31-13.61a52.47,52.47,0,0,0-.84-21.57l-2.56,1.79"/><path class="cls-1" d="M621,436c7.87,3.71,11.57,13.5,10.17,22.09s-6.91,16-13.33,21.86a3.84,3.84,0,0,0-1.27,1.67c-.59,2.24,2.67,3.17,4.67,4.34,3.44,2,3.47,7.89,0,9.94-2.36,1.41-5.32,1-8.07.92s-6,.65-7.09,3.17c-1.17,2.67.63,6.26-1.25,8.48-1.3,1.53-3.62,1.5-5.61,1.35-10-.77-20.07-1.55-29.62-4.56A20.67,20.67,0,0,0,564,504a10.43,10.43,0,0,1-2.74-.18,5.46,5.46,0,0,1-2.94-3,16.44,16.44,0,0,1-1.45-9.76,10.08,10.08,0,0,0,.29-3.4c-.51-2.94-4-4.25-7-4.45s-6.25.06-8.62-1.76c-4-3.11-2.36-9.56.25-14s5.88-9.51,3.81-14.18c-.63-1.44-1.76-2.75-1.76-4.33,0-4.59,8.12-4.21,10.07-8.38,1.25-2.67-.71-5.94.22-8.74,1.76-5.27,11.44-4.2,12.79-9.59a13.89,13.89,0,0,1,.61-3c1.49-2.89,5.82-.9,9.08-1,1.76,0,3.46-.85,5.22-.75s3.66,1.81,2.91,3.4c-1.84-1.62-1.22-4.86.68-6.41s4.55-1.76,7-1.6c13.08.91,24.67,12.17,26,25.21,1.49-.06,2.27-2,1.73-3.43a7.21,7.21,0,0,0-3.15-3.1q-12.26-7.83-24.54-15.63c-.68-.43-2.09.19-1.37.56"/><path class="cls-1" d="M552.34,438.17a30.9,30.9,0,0,0-1.39,15.4c.18,1.05.52,2.24,1.5,2.67s2.34-.86,1.59-1.62"/><path class="cls-1" d="M536.86,451.06c-.24,5.74-.47,11.52.46,17.19.57,3.47,1.87,7.24,5,8.81.6-.07.36-1,0-1.45A10,10,0,0,0,539,472.8a3.63,3.63,0,0,0-4.06.55c-1.57,1.67-.43,4.45,1.15,6.12,3.24,3.41,7.86,5.11,12.36,6.49l-2.41-.91"/><path class="cls-1" d="M539.82,475.48a65.2,65.2,0,0,0,13.55,1.39,22.07,22.07,0,0,0,12.77-4.15c.79-.61,1.57-1.75.92-2.51a14.91,14.91,0,0,0-8.43,7.68,2.62,2.62,0,0,0-.31,1.9c.31.89,1.36,1.24,2.29,1.41,7.29,1.27,14.61-1.53,21.49-4.27"/><path class="cls-1" d="M567.79,504.67c11-.63,22.59-1.41,32-7.22,1.26-.78,2.62-2,2.33-3.45A19.4,19.4,0,0,0,598,496a61.12,61.12,0,0,0,17-19.73,13.1,13.1,0,0,0-5.41,6.76,1.62,1.62,0,0,0-.1.94c.31.95,1.75.51,2.51-.14,5.73-4.94,9-12.4,15.19-16.76"/><path class="cls-1" d="M619,471.67a50.76,50.76,0,0,0-1.41-19.55,2.68,2.68,0,0,1,0-2.15c.46-.71,1.44-.79,2.28-.87a13.93,13.93,0,0,0,8.39-3.92,4.36,4.36,0,0,0,1.41-2.31,4.55,4.55,0,0,0-.56-2.59,16.91,16.91,0,0,0-5.36-6.44"/><path class="cls-1" d="M246.71,175.36c5.59,11.63,14.23,21.48,22.77,31.16,2.77,3.14,5.6,6.33,9.15,8.58,4.5,2.84,9.87,4,15.17,4.56a171.54,171.54,0,0,0,22.45.49c13-.29,26-.59,38.79-2.91,8.91-1.62,17.62-4.23,26.57-5.6,13.72-2.1,27.72-1.28,41.55-2.46,7-.59,14.55-1.56,20.46,2.17a23.86,23.86,0,0,1,6.26,6.33,65.65,65.65,0,0,1,11.66,27.4,15.84,15.84,0,0,1,0,7.15c-1.23,4.1-5.18,6.73-9.06,8.52a52.41,52.41,0,0,1-50.7-4.41c-7.81-5.4-14.21-13.3-16.23-22.57-.5-2.31-1.33-5.27-3.69-5.42-2.13-.14-3.44,2.23-4.2,4.22q-1.68,4.44-3.38,8.89"/><path class="cls-1" d="M376.35,236.13c-6.78,11.64-2.36,26.78,5.22,37.92s18,20.19,24.81,31.83c2.66,4.56,4.85,9.64,9,12.91,5.41,4.29,12.89,4.55,19.79,4.43a371.28,371.28,0,0,0,41.34-3.06c17-2.23,34.18-5.74,49.4-13.73s28.44-20.95,33.64-37.32c4.14-13.06,2.94-27.37-1.09-40.46s-10.76-25.18-17.73-37c-10-16.94-21-34-37.1-45.3-17.07-12-38.14-16.38-58.06-22.58-14.75-4.59-29.22-10.32-44.44-13-23.73-4.11-48.45-.4-70.82,8.51s-42.5,22.84-60.28,39.07c-7.36,6.72-14.86,15-14.6,25"/><path class="cls-1" d="M285.21,193.49a38.71,38.71,0,0,0,48.62-17.43c2.57-4.74,4.13-10.38,2.61-15.55-2-6.83-8.87-11.13-15.69-13.14a45.26,45.26,0,0,0-33.64,3.39c-5.41,2.88-10.38,7.1-12.68,12.77s-1.32,12.93,3.41,16.81c3.46,2.83,8.17,3.47,12.62,3.87,17.55,1.58,35.69,1.24,52.07,7.74,6.74,2.68,13.82,7.73,14,15,.14,4.82-3,9.32-7.19,11.78s-9.13,3.16-14,3.13c-19.17-.13-37.8-11.94-46.11-29.22"/><path class="cls-1" d="M365.67,193.38c5.45-7.29,11.17-15.42,10.66-24.51-.38-6.64-4.23-12.8-9.5-16.86s-11.84-6.18-18.44-7c-5.34-.67-10.95-.5-15.84,1.75s-8.92,6.91-9.26,12.28c-.47,7.22,5.44,13.25,11.54,17.12,16.15,10.25,36.1,12.59,53.22,21.12a5.05,5.05,0,0,1,2.14,1.63,3.46,3.46,0,0,1-1,4.26,9.06,9.06,0,0,1-4.42,1.66,58.61,58.61,0,0,1-50-15.73c-2.27-2.23-4.44-5.78-2.53-8.32a6.71,6.71,0,0,1,3.89-2.07c18.61-4.78,38.17-.25,57.37.1,4.65.08,9.9-.35,12.89-3.92,2.18-2.61,2.56-6.35,1.88-9.68-1.5-7.34-7.52-13.1-14.33-16.23s-14.38-4.05-21.82-4.94"/><path class="cls-1" d="M336.41,150.38l-23.08,9.71c16.17-9.55,33.42-18.12,52-20.55s39,2.13,52,15.66c7.07,7.34,12,17.21,21.15,21.78,4.14,2.07,9.27,2.8,13.35.6,4.81-2.59,6.85-8.36,7.86-13.73A70.06,70.06,0,0,0,460.91,149c-.07-2.54-.3-5.18-1.6-7.38a12.72,12.72,0,0,0-5-4.42,25.32,25.32,0,0,0-26.18,1.45c-4.29,3-7.7,7.82-7.62,13.07.08,4.88,3,9.19,6.15,13A113.67,113.67,0,0,0,452,187.47"/><path class="cls-1" d="M375.71,186.09q18.8,4.31,37.91,7c15.14,2.12,31.17,3.34,45.17-2.8,4.54-2,8.94-4.93,11.1-9.39a53.63,53.63,0,0,0-7.24,35.72c.88,5.79,2.79,11.56,6.52,16.07A23.47,23.47,0,0,0,510,223.44a103.93,103.93,0,0,0-30,55.1"/><path class="cls-1" d="M466.45,183.83c-.1-4.31,3.59-8,7.68-9.35,6.41-2.2,13.76,0,18.94,4.33s8.43,10.64,10.49,17.1c2.22,7,2.85,15.47-2.21,20.74-5.75,6-15.37,4.67-23.62,5.56a3.46,3.46,0,0,0-1.92.62c-1.64,1.39.18,4,1.94,5.21a91.58,91.58,0,0,0,35.83,15c3.26.61,6.84,1,9.67-.74,3.13-1.9,4.39-5.79,4.85-9.42,1.79-14.25-5.35-28.46-15.53-38.59s-23.15-16.89-35.9-23.49"/><path class="cls-1" d="M483.86,172.2a24.82,24.82,0,0,0-40.3-25.95c-4.3,3.9-7.22,9.65-6.6,15.42.55,5.16,3.8,9.69,7.75,13.05a33.31,33.31,0,0,0,14.12,7c2,.47,4.62,1.26,4.74,3.35.1,1.68-1.6,2.88-3.16,3.52-7.56,3.09-16.28,1.4-23.77-1.87a61.25,61.25,0,0,1-29.85-28.18c-2-3.89-3.48-8.71-1.24-12.45,3.32-5.54,11.63-4.37,17.45-7.17,1.27-.62,2.58-1.68,2.55-3.1s-1.25-2.34-2.38-3.08a51.09,51.09,0,0,0-45.52-4.72"/><path class="cls-1" d="M470.17,247.59c3,7,6.89,14,12.85,18.86s14.46,7.19,21.55,4.22c4.28-1.79,7.85-5.7,8.35-10.32.59-5.6-3.38-10.85-8.25-13.67-5.37-3.11-13.33-3.39-16.82,1.74-3,4.32-1.37,10.15.32,15.11l5.46,16.06c1.66,4.88,3.32,10.23,1.58,15.08s-6.25,7.81-10.85,9.83a48.29,48.29,0,0,1-44.4-3.36c-3.48-2.2-6.83-5.08-8.12-9s.23-9,4.11-10.39"/><path class="cls-1" d="M447,277.23c3.61-2.47,8.34,1,10.93,4.53a54.54,54.54,0,0,1,6.31,11.09c1.73,4.09,2.9,9,.7,12.82a13.9,13.9,0,0,1-4.58,4.41,38.37,38.37,0,0,1-28.42,5.48A71.7,71.7,0,0,1,419,311.21c-4-1.65-8.06-3.39-11.32-6.22s-5.68-7-5.36-11.31c.44-5.81,5.73-10.31,11.37-11.8s11.59-.63,17.37.14,11.8,1.4,17.32-.48c-4.83-3.83-11.09-5.32-17.2-6.21a115.33,115.33,0,0,0-41.08,1.43"/><path class="cls-1" d="M398.9,268.7c-1-4.43-4.14-8.1-7.6-11a25.66,25.66,0,0,0-7-4.44,7.56,7.56,0,0,0-5.78-.34c-1.81.8-3,3.22-1.88,4.88a36.93,36.93,0,0,1-.25-18.18c7.24,12,14.66,24.44,16.16,38.34a26.48,26.48,0,0,0,1.16,6.82c1.45,3.77,4.9,6.33,8.18,8.69"/><path class="cls-1" d="M408.67,294A69.47,69.47,0,0,1,429,280.09c3.46-1.55,7.68-2.76,10.88-.72,3.69,2.37,3.87,7.81,2.38,11.94s-4.19,7.84-5,12.15a4.54,4.54,0,0,0,.36,3.25c.87,1.33,2.68,1.6,4.26,1.72a155.11,155.11,0,0,0,21.45.11c11.88-.76,24.45-3.28,32.95-11.62,3.67-3.59,6.45-9.18,4.12-13.76-1.38-2.7-4.2-4.32-6.86-5.78l-26-14.23,11.23,3.66a116.18,116.18,0,0,0-20.62,16.77c-2.09,2.13-4.25,5-3.37,7.81.59,1.93,2.44,3.2,4.28,4,10.11,4.5,22-.19,31-6.6s17-14.7,27.38-18.58"/><path class="cls-1" d="M508.16,283.78a76.27,76.27,0,0,0,18.35-21.93c3-5.42,5.39-11.89,3.27-17.72-2-5.52-7.6-9.08-9.84-14.51a136,136,0,0,1,19.14-3c-2.55-2.2-6.45-2.32-9.51-.93a16.87,16.87,0,0,0-7.11,6.94c-4.8,8-5.67,17.7-5.38,27,.12,4,.43,8.07-.68,11.91-1.51,5.23-5.53,9.45-10.16,12.32s-9.87,4.56-15.05,6.22l2.27-1.29"/><path class="cls-1" d="M515.79,193.16c4.85-.91,9,3.38,11.89,7.36C533.13,208,538,216.09,540.42,225s2.14,18.88-2.3,27c-.93,1.72-2.09,3.54-1.77,5.47a6.81,6.81,0,0,0,2.76,3.86c4.43,3.59,10,5.82,13.68,10.17a5.07,5.07,0,0,1,1.53,4,5.68,5.68,0,0,1-1.39,2.45c-6.58,7.9-15.43,14.29-25.53,16.23S506,293,499.52,285"/><path class="cls-1" d="M539.93,215.7c-.81-9.56-2.28-19.19-6-28s-9.82-17-18.24-21.59-19.24-5.32-27.53-.47a66,66,0,0,0-42.92-34.7"/><path class="cls-1" d="M536.31,284.25c1.28,4-2.94,7.53-6.83,9.05a37.7,37.7,0,0,1-18.57,2.25,31.7,31.7,0,0,0-7.25-.63c-2.42.23-4.93,1.46-5.88,3.7s-.19,4.72-.93,7a8.36,8.36,0,0,1-4.38,4.47c-4.78,2.45-10.52,2.46-15.7,1s-9.88-4.15-14.4-7"/><path class="cls-1" d="M250.51,166.07c-1.06.72-1.87-1.21-1.7-2.48,1.29-10.15,3.28-20.49,8.6-29.22,10.15-16.64,30.47-24.29,49.83-26.47s39.05-.07,58.35-2.79c-.81-2.23-3.1-3.54-5.31-4.4-6.64-2.59-13.93-2.82-21-2.83-15.48,0-32.21,1.37-44,11.42-5.56,4.74-9.52,11-14.31,16.56S270,136.38,262.7,137s-15.34-4.88-15.08-12.18c.14-4.07,2.7-7.68,5.73-10.4,6.36-5.73,14.89-8.48,23.34-9.85,17.18-2.79,34.93-.47,51.51,4.84a64,64,0,0,0,9.92,2.73c4.42.66,8.91.17,13.37-.07,13.29-.75,26.59.59,39.83,1.92"/><path class="cls-1" d="M246.36,173.32q.09-11.52-.87-23l1.79,11.54a115.42,115.42,0,0,1,.4-16.21q-.65,6-1.3,11.94c3.79-13.05,4.75-26.93,10.07-39.44,6.17-14.51,18-26.23,31.79-33.87s29.49-11.41,45.21-12.7c8-.66,16.31-.73,23.74-3.84,6.25-2.61,11.74-7.58,13.78-14,1.9-6,.69-12.51-.63-18.67-1-4.71-2.34-9.84-6.27-12.6-4.81-3.38-12.34-2.35-15.81-7.09,7.86-1.85,16.32.72,22.8,5.54s11.19,11.67,14.85,18.86c3.81,7.47,6.67,15.87,5.35,24.16-1.64,10.25-9.46,18.57-18.34,23.94s-18.95,8.4-28.51,12.43-19,9.42-24.84,18-6.87,21.1-.1,29c.94,1.09,2.06,2.18,2.28,3.6a5.46,5.46,0,0,1-1.08,3.66c-3.24,5.08-9,7.94-14.64,10a99.16,99.16,0,0,1-31.37,6.1c-5.05.15-10.14-.08-15.1.87a35,35,0,0,1-6.86,1.09c-2.32,0-4.8-.91-6-2.91s-.35-5.12,1.89-5.69"/><path class="cls-1" d="M270.64,148.56a47.11,47.11,0,0,1,.5-23.41,19.17,19.17,0,0,1,10.69-13.58c18.92-10.32,43.29-6.08,62.11-16.6,15.13-8.45,24.15-25.61,25.55-42.88a32.8,32.8,0,0,1-25.88,41.5c-12.32,2.15-26-2.64-37,3.47"/><path class="cls-1" d="M298.94,95.9a206.1,206.1,0,0,0,61.15-13.53c6-2.34,12.4-5.36,15.42-11.09,3.55-6.74,1.37-14.89.12-22.4a83.82,83.82,0,0,1-1.1-16.82,2.56,2.56,0,0,1,.73-2.07c1.32-.94,2.76,1,3.2,2.57,2.52,8.89,4.85,18,4.45,27.24S379,78.53,371.74,84.23c-9.09,7.11-21.88,6.9-33.21,4.68S316,82.79,304.44,83.67"/><path class="cls-1" d="M341.39,85.54a224.47,224.47,0,0,1-45.49,8.14c15.7-8.5,28-24.39,45.63-27.05-11.82,5-24.48,7.8-36.32,12.75S281.93,92,276.33,103.54c-3.25,6.7-4.3,14.26-4.78,21.69-.57,9-.32,18.32,3.23,26.61.41,1,1.12,2,2.16,2s1.53-1.21,1.84-2.17a62.54,62.54,0,0,0,2.83-19.59c0-2.35-.77-5.34-3.1-5.64-1.71-.21-3.12,1.25-4.19,2.59a169.55,169.55,0,0,0-19.42,30.38c5.21-11.93,11.72-23.46,20.67-32.92s20.51-16.77,33.32-19.1c-.58,4.46-3.42,8.25-6.05,11.9-7.48,10.33-14.21,21.42-17.79,33.66-.92,3.13-1.51,6.86.6,9.36,2.26,2.68,6.38,2.49,9.87,2.07"/><path class="cls-1" d="M275.55,180.41l1.29,3.6c-2.29-11.94,1.25-24.24,6.08-35.4A155.58,155.58,0,0,1,423.11,54.77c11.56-.2,23.38.87,34.48-2.38a46.32,46.32,0,0,0,27.8-22.92c2.66-5.14,4.34-11,3.32-16.73S483.46,1.7,477.77.62c9.78-1.07,19.17,5.29,24.57,13.52s7.58,18.08,9.67,27.69q1.75,8.1,3.52,16.2c.77,3.55,1.54,7.26.58,10.76-1.34,4.85-5.67,8.19-9.75,11.12C490.7,91.18,474.72,102,458.74,112.78c-5.35,3.61-10.79,7.27-16.91,9.31-12.12,4-25.42,1.27-38.05,3.19a52,52,0,0,0-26.34,12.32c-2.37,2.1-4.56,4.42-7.12,6.29-4,2.91-8.66,4.62-13.26,6.37a435.41,435.41,0,0,0-66.28,31.92c-4,2.34-8.29,4.83-12.85,4.21"/><path class="cls-1" d="M281.38,177.38c20.52-21.31,50.15-31.51,79.4-35.89,17.63-2.64,36.5-3.81,50.92-14.28C424.31,118,431.51,103.07,443.39,93c8.2-7,18.24-11.27,27.85-16.1s19.2-10.53,25.43-19.3,8.25-21.31,2.23-30.22c-2.74-4.06-7.33-7.18-12.22-6.93.85,3.27,5.1,3.86,8.27,5,6,2.22,9.79,8.61,10.23,15s-2,12.67-5.36,18.09a52.87,52.87,0,0,1-47.06,24.22"/><path class="cls-1" d="M494.19,36.62c-9.81,23.06-29.7,40.68-51.83,52.45s-46.58,18.33-70.82,24.67c-4,1-8.46,2-11.9-.22l53.14-32.91c15.92-9.86,32.07-19.82,50-25.22a107,107,0,0,1,22.92-4.26c2.47-.19,5.21-.21,7.14,1.36,1.63,1.33,2.28,3.48,2.85,5.5.91,3.19,1.82,6.5,1.32,9.77s-2.79,6.53-6.06,7"/><path class="cls-1" d="M497.11,41.42c3.17,9.28,1.27,19.7-3.1,28.48s-11,16.19-17.68,23.35c-5.59,6-11.45,12-18.83,15.52-1.69.81-4.17,1.23-5-.43,5.12-3.7,11-6.26,16.56-9.22,11.21-6,21.68-13.83,28.72-24.39s10.31-24.05,6.79-36.25c-2.84-9.82-9.91-19.28-7.49-29.21l11.45,17.86c2.31,3.6,4.72,7.59,4.24,11.84-.89,7.93-10.58,11.34-15,18"/><path class="cls-1" d="M475.94,44.11A63.45,63.45,0,0,1,439.33,74c-7.69,2.36-16.27,3.16-23.58-.18-6.91-3.17-12.14-9.78-19.54-11.52-5.45-1.29-11.26.36-16.07,3.22s-8.82,6.89-12.83,10.79c-9.64,9.36-19.75,18.4-27.56,29.33s-13.22,24.2-12,37.58c.89-16.88,9.07-33,21.21-44.76s28-19.32,44.55-22.79c9-1.9,18.92-2.51,27,1.88,2.88,1.56,5.59,5.49,3.22,7.75-1.12,1.07-2.87,1.08-4.42.92-6.38-.7-12.52-3.29-18.94-3.34s-12.37,2.33-18,5.22a100.33,100.33,0,0,0-32.46,26.65c-5.4,6.81-10.11,15.36-8.18,23.83"/><path class="cls-1" d="M439.65,94.75c-13.27,12.43-27.38,25.33-45.06,29.55-13.47,3.22-27.67,1-41.38,3,25.38-7.65,51-15.4,74.14-28.27,12.64-7,25.34-15.79,39.8-15.88.68,2.33-.92,4.66-2.45,6.55-9.35,11.6-19.62,22.82-32.49,30.32s-28.8,10.9-42.9,6.11"/><path class="cls-1" d="M387.57,111.38a162.31,162.31,0,0,0-47,16.8c-9.34,5.08-18.47,11.38-23.85,20.55-.61,1.05-1.19,2.31-.72,3.44,1,2.35,4.55,1.12,6.5-.53,10.58-8.95,19.21-20.62,31.7-26.64,3-1.43,6.4-2.53,9.57-1.56a3.36,3.36,0,0,1,1.85,1.19c1.07,1.62-.48,3.65-1.92,5q-9.29,8.34-19.12,16l6.11-2.45"/><path class="cls-1" d="M375.67,110.73A347,347,0,0,1,458.5,80.5c-18.57,2.21-36.93,5.82-55.27,9.43C424,81.14,447,79.42,469.56,77.81l-14.71,3.1C477.61,69.61,504,69.09,529.4,68.79c7.85-.09,15.84-.16,23.33,2.19,21.65,6.78,34.38,32,56.66,36.38L592.66,92.72c-2.11-1.85-4.31-3.84-5.12-6.52-.63-2.08-.33-4.32-.63-6.47-1.16-8.28-10.28-12.62-18.25-15.15a286.54,286.54,0,0,0-50-11.07,10.08,10.08,0,0,0-5.21.25c-1.63.68-2.89,2.56-2.27,4.21.52,1.36,2,2,3.39,2.54l44.68,17c6.58,2.5,13.24,5,18.93,9.19s10.37,10.16,11.35,17.13A84.08,84.08,0,0,0,531.31,58c5.12,5.4,12.36,8.12,19.18,11.08a193.21,193.21,0,0,1,45.76,28c-16.83-8.91-36.65-10.93-55.59-8.88-7.92.86-15.93,2.46-22.83,6.45-9.17,5.29-15.51,14.24-23.13,21.59a81.72,81.72,0,0,1-20.91,14.62,45.57,45.57,0,0,1-12.94,4.37c-4.12.63-8.32.44-12.46.83-6.77.65-13.3,2.82-20.05,3.68-17.39,2.22-34.56-4.37-50.85-10.84-2.27-.9-4.79-2.06-5.56-4.37a61.7,61.7,0,0,1,16.63-27.89c-6.32,5.66-12.78,11.52-16.52,19.14-1.13,2.31-2,4.91-1.52,7.44,1.18,6.08,8.82,8,15,8.53,13.41,1.13,26.87,1.63,40.32,2.14,12,.45,24.14.87,35.68-2.32,7.77-2.15,15.51-6,23.49-4.78a115.75,115.75,0,0,1-29.88,12.82l7-5.21c-20.78,3.09-42,6.19-62.69,2.64-3.21-.55-6.54-1.33-8.95-3.52-2.1-1.91-3.21-4.65-4.09-7.35a66.05,66.05,0,0,1-3.2-18.17,15,15,0,0,1,.88-6.64c1.73-3.94,6.07-6,10.12-7.4,8.82-3.15,18-5.23,27.12-7.3l64.89-14.73a261.84,261.84,0,0,1-32.16,4.48c16.18-5.84,33.69-6.56,50.88-7.23l47-1.82c6-.24,12.15-.44,17.75,1.67,19.06,7.18,22,36.28,41,43.64-12.78-13.45-31.57-19.55-50-22-14.76-2-30-1.84-44.27,2.4-7.8,2.32-15.19,5.82-22.54,9.32-5.41,2.57-11,5.27-14.84,9.87-4.19,5-5.78,11.64-8.39,17.64-1.16,2.67-2.64,5.35-5.06,7a16.3,16.3,0,0,1-6.18,2.09A100.11,100.11,0,0,1,438,140.5"/><path class="cls-1" d="M436.78,126.79c17.51-5.61,32.32-17.49,49.28-24.58,13.25-5.54,27.55-8,41.71-10.51-3.67-3.8-9.24-4.93-14.49-5.48a103.83,103.83,0,0,0-49,6.83A458.09,458.09,0,0,1,546,78"/><path class="cls-1" d="M475.16,147.59c10.23,3.46,19.28,9.62,28.23,15.66,26.36,17.78,53.69,35.29,84.48,43.24,6.63,1.71,13.5,3,20.32,2.29,9-.88,17.22-5,25.25-9.11,9.88-5,20.11-10.32,26.73-19.2,5.58-7.48,8-16.82,9.68-26,1.46-8.28,2.35-16.82.71-25.07s-6.12-16.23-13.36-20.51c7,10.09,14.31,21.14,13.9,33.42-.44,13.63-10.2,24.92-19.42,35-9.73,10.61-19.54,21.28-31.07,29.89-4.7,3.5-9.82,6.71-15.58,7.8-8.67,1.63-17.51-1.76-25.19-6.11s-14.87-9.73-23.19-12.67a102.5,102.5,0,0,0,46.94,17.22c7.16.74,14.51.72,21.44-1.25,10.28-2.92,19-10,25.65-18.35s11.32-18.11,15.67-27.87c2.58-5.79,5.11-11.85,5-18.19-.27-15.17-15.21-26.87-16.23-42l6.52,16.57c.66,1.67,1.33,3.51.79,5.22s-2.23,2.9-3.83,3.82a66.18,66.18,0,0,1-17.44,7c-6.33,1.54-13.14,2.11-19.26-.12-5.9-2.16-10.57-6.68-15.16-11Q593.69,115,579.57,104c-11.74-9.16-24.34-17.83-38.75-21.57-8.75-2.28-17.88-2.65-26.92-2.74-22.37-.2-44.94,1.33-66.47,7.41s-42.06,17-57.23,33.4l9.52-18a31.72,31.72,0,0,0-20,8.87c21,3.08,42.43,4.4,62.83,10.37s40.22,17.38,50.91,35.75a3.35,3.35,0,0,1,.64,2.09c-.22,1.42-2.19,2-3.47,1.29a7.44,7.44,0,0,1-2.74-3.26c-9.09-16.07-25.35-27-42.6-33.61s-35.69-9.23-53.88-12.34c-2-.34-4.41-1-5-3a4.89,4.89,0,0,1,.22-2.75c1.67-5.45,5.66-9.91,10.09-13.51,10.94-8.91,24.86-13.48,38.8-15.61s28.12-2,42.22-2.52c24.61-.92,51.33-3.32,71.81,10.36,8.67,5.81,15.37,14,22.67,21.5A169,169,0,0,0,623.52,142c2.36,1.07,4.91,2.1,7.46,1.64a13.45,13.45,0,0,0,4.56-2.08l9.42-5.81c4.59-2.83,9.34-5.82,12.19-10.39s3.16-11.21-.78-14.88c-.66,6,3.29,11.42,5.75,17a36.31,36.31,0,0,1-21.22,49"/><path class="cls-1" d="M416.21,111.43c4.58-7.29,13.42-10.61,21.82-12.48a116,116,0,0,1,85.19,14.33c23.44,14.46,41.79,37.38,67.65,46.86,6.81,2.5,14.67,3.9,21.12.59,5.12-2.62,8.51-7.9,10-13.47s1.3-11.43.79-17.16q-2.89,9.36-5.8,18.74c-2.17,7-4.64,14.42-10.47,18.84-4.8,3.63-11.25,4.58-17.19,3.6s-11.45-3.71-16.58-6.85c-29.38-18-48.33-49.46-77.07-68.45,24.84,11.14,50.87,19.42,75.91,30.11S621,150.17,640,169.76c2,2.05,4.28,4.33,7.12,4.2,3.44-.16,5.6-3.69,7-6.85,2.57-6,4.46-13.15,1.1-18.72-2.35-3.9-6.93-6.1-11.47-6.35s-9,1.23-13,3.37c-16.83,9-25.23,28.14-38.79,41.55-3.35,3.32-7.3,6.42-12,7-6.74.91-13-3.46-18.08-8-14.88-13.19-26.68-29.44-38.35-45.55a547.33,547.33,0,0,0,59.93,46.82c5.64,3.81,11.51,7.59,18.15,9.09,9.88,2.24,20.5-1,28.59-7.07S644,174.46,648,165.18a74.79,74.79,0,0,0-23.9,29.54c2.23,1.58,5.27-.09,7.39-1.82a88,88,0,0,0,29-44.61c-4.26.9-7.65,4-10.82,7-9.52,9-19.31,17.79-30.71,24.16s-24.68,10.13-37.59,8.18c-10.22-1.55-19.57-6.54-28.55-11.68-15.82-9-31.24-18.79-46.31-29-3.25-2.21-6.91-5.45-6-9.28.43-1.89,1.91-3.33,3.39-4.57a48.23,48.23,0,0,1,16-8.85"/><path class="cls-1" d="M556.48,172.73c-4.66-8.65-10-17.08-17.16-23.8-12.15-11.4-28.48-17-44.27-22.28,13.83-2.52,28.11-.22,41.69,3.46s26.76,8.74,40.46,11.9c1.45.33,3.12.61,4.32-.27,1.91-1.4,1.17-4.4.07-6.51-4-7.59-10.08-13.88-16.62-19.43a136.88,136.88,0,0,0-49.36-26.72l8.5,3.25"/><path class="cls-1" d="M622.79,213.23a63.19,63.19,0,0,0,30.57,30.35c4.24,1.94,8.84,3.43,13.49,3.07,5.2-.41,9.92-3.07,14.44-5.67,7.78-4.47,16.28-9.87,18.34-18.6,1.32-5.59-.4-11.58-3.61-16.34s-7.79-8.43-12.56-11.63l12.19,10.77c6.06,5.35,12.23,10.84,16.14,17.91s5.2,16.14,1.18,23.15c-2,3.57-5.22,6.3-8.35,8.95-5.93,5-11.91,10.11-18.79,13.72-12.57,6.61-27.27,7.89-41.46,7.45-36.11-1.11-72.11-12.92-100.72-35a162.11,162.11,0,0,0,77.55,33.34"/><path class="cls-1" d="M564.11,211.47c-.83,7.58,4.88,14.21,10.6,19.27,15,13.33,32.8,23.26,51,31.69,8,3.67,16.13,7.11,24.77,8.49s17.91.54,25.46-3.91,13-12.91,12.4-21.65a5.64,5.64,0,0,0-1.27-3.64c-1.61-1.66-4.35-1.19-6.53-.41-13.37,4.81-24.31,16.68-38.51,17.43-12.28.66-23.12-7.24-33.79-13.36-7-4-14.4-7.42-21-12.12s-12.42-10.95-14.73-18.69"/><path class="cls-1" d="M576.2,212c1.49,7.11,5.85,13.37,11.25,18.22s11.81,8.42,18.32,11.65c20.29,10.06,43.36,17.27,65.47,12.34,11.87-2.65,22.7-8.65,33.33-14.57-4.79-1.81-10.21-1.13-15,.62s-9.2,4.48-13.73,6.86a103.37,103.37,0,0,1-88.58,3c-1.61-.72-3.47-1.88-3.36-3.64.13-2.07,2.74-2.84,4.8-3,36.86-3.66,74,1.29,110.67,6.23"/><path class="cls-1" d="M697.39,229.37a48.79,48.79,0,0,0,9.52-20.78,41.1,41.1,0,0,0-1.3,18.21c.89,5.8,3,11.86.91,17.35-1.82,4.79-6.44,7.91-11,10.19a70.84,70.84,0,0,1-41.42,6.59c-10.31-1.51-20.13-5.28-29.85-9l-55.13-21.24a65.22,65.22,0,0,1,25.9,4.66,35,35,0,0,1-26.3.11c.89-3.62,4.4-5.89,7.71-7.59,12.66-6.51,26.58-10.18,40.5-13.16,2.48-.53,5.49-1.57,5.85-4.08A231,231,0,0,0,554,218.69"/><path class="cls-1" d="M280.76,184.24c-.12,7,.46,14.12,3.21,20.53s7.94,12.07,14.64,14c8.88,2.59,18.82-2,24.27-9.45s7-17.24,6.13-26.45c-.14-1.58-.32-3.27.45-4.66,1.23-2.21,4.2-2.58,6.73-2.71,12.82-.64,25.73-1.85,38-5.68s23.9-10.46,31.95-20.46c-3.54-.6-6.79,2.4-8.12,5.73-2.36,5.92-.42,12.93,3.61,17.87s9.83,8.11,15.76,10.46a83.53,83.53,0,0,0,60.15.34"/><path class="cls-1" d="M331.3,199.8a261,261,0,0,0,68-3c2.47-.44,5.08-.9,7.45-.06s4.28,3.52,3.36,5.85a155.05,155.05,0,0,1,46.17,12.18c-18.78-7.78-36.1-18.76-54.87-26.55-6.47-2.68-13.32-5-20.31-4.64,4.17,2.82,9.2,4,14.13,5,21.86,4.44,44.39,6.54,65.21,14.55,5.07,2,10.07,4.28,14.25,7.74,10.56,8.74,14.39,24.39,10,37.37S468.24,271.09,454.83,274a33.26,33.26,0,0,1-18.32-.89"/><path class="cls-1" d="M365.71,155.19A153.85,153.85,0,0,1,452,183.06c12.27,8.65,23.7,19.81,28,34.2,1.21,4,1.77,8.62-.3,12.3a4.38,4.38,0,0,1-2.86,2.39c-2.08.34-3.75-1.62-4.86-3.4-10.17-16.19-14.43-35.56-24.77-51.65C435,158,415.58,145.2,396.7,133c-5.34-3.45-10.84-7-17.06-8.32q68.7,34.11,135,72.82l-6.49-1.21"/><path class="cls-1" d="M472.74,161.84c-3.09-4.76-8.57-7.31-13.87-9.33A157.08,157.08,0,0,0,382,143.44a149.67,149.67,0,0,0-71.36,29.8c-3.66,2.84-7.25,5.94-9.52,10,1.44,1.83,4.24,1.62,6.51,1.08C315.06,182.5,322,179,329,176a217.22,217.22,0,0,1,117.3-15.92c-12,2.47-24.26,3.51-36.42,5.09a406.89,406.89,0,0,0-96.1,24.71c6.22,1.21,12.59-.46,18.72-2a1060.43,1060.43,0,0,1,109.81-22.47"/><path class="cls-1" d="M312,136.81c18.7-14.28,42.75-19.06,65.86-23.45a375.43,375.43,0,0,0-69,22.1,420.62,420.62,0,0,0,49.31-31.1"/><path class="cls-1" d="M370.45,85.22A134,134,0,0,1,416.77,72c8.92-.88,18.62-.65,25.88,4.6a118.63,118.63,0,0,1-28.1-9.86c-1.15-.57-2.44-1.38-2.53-2.66-.13-1.94,2.41-2.75,4.35-2.9,8.87-.69,17.78-1,26.68-1a32.86,32.86,0,0,0-19.94-1.85l71.27,4.51"/><path class="cls-1" d="M261.68,170c-1.93,13.48,6.72,27.72,19.58,32.23a2.32,2.32,0,0,0,1.71.12c1.07-.49.83-2.08.3-3.13a14.43,14.43,0,0,0-9.77-7.45,71.31,71.31,0,0,0,34,6.17A102.62,102.62,0,0,1,275.94,189c-3.47-1.62-6.94-3.5-9.37-6.45s-3.63-7.2-2.06-10.69c1.14-2.53,3.5-4.28,5.81-5.82a116,116,0,0,1,23.21-11.94"/><path class="cls-1" d="M262.35,151c-1,1.43-3.22-.14-4.12-1.66a61.49,61.49,0,0,1-5.81-13c-.84-2.67-1.49-5.6-.51-8.23.9-2.41,3-4.13,5.09-5.65a102.34,102.34,0,0,1,25.49-13.56q-14.3,8.92-27.75,19.11c-1.24.94-2.61,2.47-1.85,3.82a147,147,0,0,0,46-11.9,40.3,40.3,0,0,1-11.42,10.54c-3.52,2.16-7.9,4.54-8.09,8.66a67.52,67.52,0,0,0,35.43-16.69"/><path class="cls-1" d="M388.42,183.69c16.13-1.67,32.47,1.41,47.79,6.72s29.78,12.82,44.17,20.3q-12.42-5.55-25.27-10.08a58.82,58.82,0,0,1,25.08,44.54c.27,4.92-.13,10-2.43,14.39a51.87,51.87,0,0,1-6.41-16.78,68.43,68.43,0,0,0-6.69,26.86c-.1,2.43.64,5.65,3.06,5.74a4.21,4.21,0,0,0,2.42-.89,17.44,17.44,0,0,0,7.2-10.28q-7,4.5-13.64,9.59"/><path class="cls-1" d="M.42,260.7c2.66,4,3.33,8.89,4.35,13.55A80.31,80.31,0,0,0,98,335.94q-14.64-.13-29.24-1.12c-8.89-.6-17.82-1.44-26.36-3.95s-16.74-6.81-22.7-13.43c-3.65-4.05-6.67-9.1-11.71-11.18L14,310.41"/><path class="cls-1" d="M5.35,279.37c-.23,3.14-.46,6.29-.38,9.43.33,13.57,6.47,26.64,15.63,36.65s21.17,17.12,33.89,21.84c8.09,3,16.68,5.12,25.29,4.55,10.78-.71,20.81-5.55,30.33-10.65q13.56-7.28,26.56-15.49a6,6,0,0,0,2.54-2.45c.47-1.1,0-2.68-1.19-2.89"/><path class="cls-1" d="M67.77,346.14a125.1,125.1,0,0,0-18.26,6.78c4.36,1.67,9.23,1,13.83.24A261.67,261.67,0,0,0,105,342.44c17.26-6,34-13.87,48.68-24.73S181,292.9,188.92,276.43"/><path class="cls-1" d="M146.73,317.5a116.92,116.92,0,0,0,39.82-75.14c.83-7.42.89-15.15-1.86-22.09-.89-2.23-2.15-4.46-4.22-5.68s-5.09-1.08-6.52.85"/><path class="cls-1" d="M170.25,237.26c11-19.89,21.32-40.25,34.6-58.69,6-8.32,13.66-16.83,23.86-17.88,7.78-.8,15.22,3,22.11,6.68-15.08,3-31.43.89-45.27,7.59-14.32,6.94-22.92,22-27.83,37.16-2.23,6.88-3.43,15.56,2,20.32"/><path class="cls-1" d="M123.22,266.27A172.06,172.06,0,0,0,154.86,208c1.71-5.48,3.16-11.19,2.6-16.89A30.12,30.12,0,0,0,151,175.72c-4-5.2-9.74-10.57-8.49-17,.82-4.22,4.5-7.24,8.16-9.48,19-11.57,42.9-11.5,64.73-7.35,7.43,1.41,15.35,3.6,20,9.54-6.07-.16-11.49-3.63-16.55-7l-13-8.62c-2-1.35-4.19-2.75-6.62-3s-5,.68-7.26,1.73c-15.42,7.09-28.11,19.4-37.19,33.73S140,198.88,136.51,215.48c-1.12,5.28-2,11,.13,15.93"/><path class="cls-1" d="M157.26,145.16A54.62,54.62,0,0,1,202,166.37c2.62,3.45,4.85,8.18,2.7,11.94a2.57,2.57,0,0,1-1.87,1.44c-1.75.1-2.29-2.35-2-4.08a30.08,30.08,0,0,1,2.95-9.38c.86-1.71,1.91-3.43,1.93-5.34,0-2.08-1.21-3.94-2.43-5.62-6.91-9.52-15.46-18.11-25.95-23.45s-23.07-7.17-34.2-3.33c-9.66,3.34-17.47,10.57-24.14,18.32-25.47,29.64-37.91,69.77-35.09,108.74.26,3.61.38,7.87-2.46,10.11a9.38,9.38,0,0,1-4.31,1.61c-11.64,2-23.41-2.11-34.25-6.79-3.08-1.32-6.26-2.8-8.27-5.48s-2.34-6.91.18-9.12"/><path class="cls-1" d="M39.48,181a18.47,18.47,0,0,0-7.69-14.87c5.93,19.8,24.28,35.27,44.79,37.76,4.55.55,9.39.46,13.38-1.78,7.77-4.36,9.31-14.57,12.62-22.84,6.67-16.62,22.78-27.61,39.31-34.51,3.94-1.64,9.14-2.86,12,.36"/><path class="cls-1" d="M43.69,183.55a50.93,50.93,0,0,0-8.8-15.82c-2.37-2.88-6.8-5.58-9.45-2.95a6.63,6.63,0,0,0-1.55,3.79c-1.83,11.12.8,22.54,5,33A112.43,112.43,0,0,0,51,236.23c5.07,5.44,11.2,10.61,18.59,11.46,5.77.66,11.48-1.43,16.83-3.68,30.37-12.79,58.65-33.33,74.24-62.37"/><path class="cls-1" d="M90,227.19a36.91,36.91,0,0,1-11.9,31.52c-10.73,9.53-26.83,12.55-35.21,24.19l26.43-7.84c14.06-4.17,28.39-8.47,40.4-16.88s21.53-21.78,21.44-36.44c0-4.93-1.12-9.84-.71-14.74s2.83-10.13,7.46-11.83"/><path class="cls-1" d="M139.62,205.33c-6.43,9.79-8,22-8.25,33.67s.72,23.53-1.37,35.06a68.43,68.43,0,0,1-29.56,44.52c-5.42,3.54-11.78,6.36-18.2,5.52A17.24,17.24,0,0,1,70,297.71"/><path class="cls-1" d="M225,197c-.88-4.49,3.94-7.83,8-9.85l20.17-9.91c-20.51,14.31-41.67,28.91-66,34.7q25.63-5.34,50.78-12.8c5.21-1.55,10.5-3.22,14.92-6.38a3.62,3.62,0,0,0,1.81-2.42,3.8,3.8,0,0,0-1.35-2.69,63.17,63.17,0,0,0-28.55-17.52c-5.43-1.56-11.1-2.4-16.25-4.73a3,3,0,0,1-1.6-1.27c-.59-1.27.66-2.59,1.81-3.37,10.13-6.88,23.29-8.78,32.41-16.93a2.91,2.91,0,0,0,1-1.45c.35-1.62-1.81-2.52-3.46-2.71a124.16,124.16,0,0,0-45,3.1,6.06,6.06,0,0,0,4.3,3.69"/><path class="cls-1" d="M308.8,348.31c18.46.56,36.95.2,55.36-1.08-5.35,6.81-10.93,14.32-10.32,22.57a129.58,129.58,0,0,0-34.35,1.62c1.05-6.25,1.82-13.4-2.95-18.13-2.91-2.9-7.48-4.34-10-7.5"/></g></g></svg>