<svg xmlns="http://www.w3.org/2000/svg" viewBox="0 0 687.33 106.5"><defs><style>.cls-1{fill:none;stroke:#231f20;stroke-miterlimit:10;}</style></defs><title>Barbara_title</title><g id="Layer_2" data-name="Layer 2"><g id="Layer_2-2" data-name="Layer 2"><path id="b" class="cls-1" d="M2.09,30.83a129.94,129.94,0,0,0,20.11.46c4.36-.25,7-.62,9.66-2.28,1-.62,6.07-3.9,7.08-10.09C40.15,11.51,34.54,6,33.8,5.32,28-.16,19.71.32,12.71.73A49,49,0,0,0,1,2.85V65.12c3.48,1.21,15.53,4.9,27.3-1C32,62.26,39.68,58.39,41.21,50.33,42.71,42.46,37,36,36,34.89,28.88,27.1,15.4,25.52,2.09,30.83Z"/><path id="a" class="cls-1" d="M50.79,25.87c4.47-7.79,12.2-12.23,19.32-11.1,8.43,1.35,12.65,10,13.14,11,2.28,4.83,2.14,10.64,2.44,22.25,0,1.66.06,3,.08,4,0,2.07.15,3.6.18,4.12.1,2,.25,5.31.42,11.26L86,56.14c-5.64,9-15.67,12.92-23.69,10.16A17.47,17.47,0,0,1,50.91,53.55a17.12,17.12,0,0,1,2.51-12.21c4.62-7.24,13-8.35,15.71-8.7a26.35,26.35,0,0,1,16.13,3.22"/><path id="a-2" data-name="a" class="cls-1" d="M271.08,27.85c4.48-7.79,12.2-12.23,19.32-11.09,8.43,1.34,12.66,10,13.15,11,2.27,4.83,2.14,10.64,2.43,22.25,0,1.67.07,3,.08,4,0,2.08.15,3.61.18,4.12.11,2,.26,5.32.42,11.26l-.42-11.26c-5.64,9-15.66,12.93-23.69,10.16A17.49,17.49,0,0,1,271.2,55.54a17.08,17.08,0,0,1,2.52-12.21c4.61-7.25,13-8.36,15.7-8.71a26.45,26.45,0,0,1,16.13,3.22"/><path id="b-2" data-name="b" class="cls-1" d="M139,36.11a26.48,26.48,0,0,1,16.6-3.47c2.67.35,11.09,1.46,15.7,8.7a17.11,17.11,0,0,1,2.52,12.21A17.48,17.48,0,0,1,162.43,66.3c-8,2.76-18.06-1.19-23.69-10.16-.14,3.75-.28,7.51-.43,11.26.17-6,.32-9.29.43-11.26,0-.52.15-2,.18-4.12,0,0,.06-2,.07-4,0-3,0-21.77-.17-47.49"/><path id="a-3" data-name="a" class="cls-1" d="M182.76,25.87c4.48-7.79,12.21-12.23,19.32-11.1,8.43,1.35,12.66,10,13.15,11,2.27,4.83,2.14,10.64,2.43,22.25.05,1.66.07,3,.08,4,0,2.07.15,3.6.18,4.12.11,2,.26,5.31.43,11.26-.15-3.75-.29-7.51-.43-11.26-5.63,9-15.66,12.92-23.69,10.16a17.48,17.48,0,0,1-11.35-12.75,17.11,17.11,0,0,1,2.52-12.21c4.61-7.24,13-8.35,15.7-8.7a26.31,26.31,0,0,1,16.13,3.22"/><path id="a-4" data-name="a" class="cls-1" d="M598.65,25.87c4.48-7.79,12.2-12.23,19.32-11.1,8.43,1.35,12.66,10,13.15,11,2.27,4.83,2.13,10.64,2.43,22.25.05,1.66.07,3,.08,4,0,2.07.15,3.6.18,4.12.11,2,.25,5.31.42,11.26l-.42-11.26c-5.64,9-15.66,12.92-23.69,10.16a17.48,17.48,0,0,1-11.35-12.75,17.12,17.12,0,0,1,2.51-12.21C605.9,34.1,614.33,33,617,32.64a26.33,26.33,0,0,1,16.13,3.22"/><path id="a-5" data-name="a" class="cls-1" d="M411.76,25.87c4.47-7.79,12.2-12.23,19.32-11.1,8.43,1.35,12.65,10,13.15,11,2.27,4.83,2.13,10.64,2.43,22.25,0,1.66.07,3,.08,4,0,2.07.15,3.6.18,4.12.11,2,.25,5.31.42,11.26l-.42-11.26c-5.64,9-15.66,12.92-23.69,10.16a17.47,17.47,0,0,1-11.35-12.75,17.12,17.12,0,0,1,2.51-12.21C419,34.1,427.44,33,430.1,32.64a26.33,26.33,0,0,1,16.13,3.22"/><path id="r" class="cls-1" d="M99.86,21.31c0,4,.11,9.76.13,16.73.07,16.17.25,29.36.25,29.36S100.19,62,100,38c.91-2.49,3.88-9.64,11.38-13.63,2.51-1.34,9-4.8,14.87-1.78a12.69,12.69,0,0,1,5.51,6"/><path id="r-2" data-name="r" class="cls-1" d="M230.81,21.31c.05,4,.11,9.76.14,16.73.07,16.17.24,29.36.24,29.36S231.15,62,231,38c.9-2.49,3.87-9.64,11.37-13.63,2.52-1.34,9-4.8,14.88-1.78a12.79,12.79,0,0,1,5.51,6"/><path class="cls-1" d="M498.68,28.6a12.69,12.69,0,0,0-5.51-6c-5.86-3-12.35.44-14.87,1.78-7.5,4-10.47,11.14-11.37,13.63.19,24,.24,29.36.24,29.36S467,54.21,466.93,38c0-7-.09-12.74-.14-16.73"/><path id="r-3" data-name="r" class="cls-1" d="M509.91,21.31c0,4,.11,9.76.14,16.73.07,16.17.24,29.36.24,29.36s0-5.36-.24-29.36c.9-2.49,3.87-9.64,11.37-13.63,2.52-1.34,9-4.8,14.88-1.78a12.79,12.79,0,0,1,5.51,6"/><path id="d" class="cls-1" d="M353.11,3.36q0,30.83.07,61.63a34.58,34.58,0,0,0,23.41,2.15c1.69-.45,14.25-4,21.06-16.77,5.65-10.53,5.78-24.4-1.56-35.19C387.06,1.9,371.77.72,369.14.56A36.4,36.4,0,0,0,353.11,3.36Z"/><path id="h" class="cls-1" d="M650.23.64c2.26,52.45,2.39,67.47,1.77,67.51-.82,0-7-26.21,4.69-36.06,5.13-4.31,14.7-5.7,21.11-1.73,3.8,2.36,5.59,6,6.54,8s2,5,2.39,16.37c.11,3.34.17,7.89,0,13.33"/><path id="G" class="cls-1" d="M582.36,27.14c.33,8.54.43,13,.44,15.56,0,.58.06,2.48.09,5.06s.15,4.61.18,5.27c.11,2.52.26,6.78.43,14.37q-.21-7.19-.43-14.37C577.28,64.48,567,69.52,558.75,66c-5-2.16-10.36-8-11.65-16.27a26.16,26.16,0,0,1,2.58-15.58c4.74-9.25,13.39-10.66,16.13-11.11C573.75,21.73,579.94,25.46,582.36,27.14Z"/><path class="cls-1" d="M583.5,67.4c.1,2.24.22,5.49.25,9.41a96.17,96.17,0,0,1-.15,10c-.48,4.17-1.39,12.1-7.61,16.36-4.75,3.26-12.5,4.3-18.52,0A16.4,16.4,0,0,1,550.88,88"/></g></g></svg>