<svg xmlns="http://www.w3.org/2000/svg" viewBox="0 0 602.07 378.62"><defs><style>.cls-1{fill:none;stroke:#000;stroke-miterlimit:10;}</style></defs><title>border</title><g id="Layer_2" data-name="Layer 2"><g id="Layer_2-2" data-name="Layer 2"><path class="cls-1" d="M543.12,4.36c-15.43,17.53-14.29,44.91-4.24,66S566.2,108,582,125.25c4.81,5.25,9.59,10.76,12.21,17.37,5,12.56,1.34,27-4.91,39s-15,22.57-21,34.67c-19.55,39.29-8.49,89.25-30.71,127.1-2.16,3.68-4.66,7.3-5.53,11.47-2.09,10,6.43,19.93,16.33,22.42s20.4-.76,29.5-5.4c14.37-7.34,28.23-23,22.29-38C594.08,318.52,573.3,317,556.83,318c-129.58,8.07-259.57,16.07-389.12,7.69C111.82,322.11,51.9,316.3,3.34,344.21c15.36,9,33.45-4.3,49.89-11.1,30.82-12.76,65.62-1.89,98.15,5.49,50.13,11.38,101.77,14.08,153.11,16.73l247.68,12.82.27.94c5.59-6.41,4-16.4.39-24.1s-9-14.81-10.35-23.21c-2.17-13.5,6.54-26.23,15.8-36.29s20-19.91,23.31-33.17c2.86-11.37-.3-23.51-5.59-34s-12.64-19.74-18.88-29.67c-31.87-50.76-32.9-114.46-30.26-174.34-94.73,43.43-142.3,47.92-168.32,43.24-17.36-3.12-41.72-13.32-69.25-3.16-10.74,4-22.3,11.15-35.28,6.78-9.82-3.3-10.4-9.84-20.35-16.28-15-9.71-28.78-4.57-48.84-5.42-27-1.15-36.58-11.9-58.36-18.5C105,14.47,72.31,12.23,24.59,32.75c18.17,5,33.41,5.7,43.88,6.81,9,.95,18.55,1.54,26.73-2.36,9.79-4.67,16.44-15.25,27-17.61,14.11-3.16,26.25,9.47,35.86,20.27,14.71,16.54,31.66,32,52.47,39.57a85.07,85.07,0,0,0,75.12-9.14c2.61-1.75,5.46-3.74,8.58-3.34A10.44,10.44,0,0,1,300,70c8.77,8.39,77.67,5.08,103.22,4.82,39.7-.4,47.68,5.85,62.33-3.49,10.85-6.91,13.46-14.21,30.05-30.87a176,176,0,0,1,34.21-26.72A135.67,135.67,0,0,0,470.32.51c-3.82,0-8.17.5-10.43,3.58-1.59,2.16-1.69,5-1.72,7.72q-.17,14.07-.34,28.13c0,3.18-.11,6.5-1.57,9.33-2.87,5.57-9.91,7.31-16.13,8.07-42.56,5.26-87.27-6.65-127.86,7.2-10,3.43-19.56,8.37-29.69,11.57-20.24,6.38-42.95,5.34-62-4-9.67-4.73-18.23-11.4-27.1-17.52a271.11,271.11,0,0,0-67-33.6c-6-2-12.43-3.87-18.58-2.36-4.35,1.07-8.12,3.71-11.81,6.25C76.73,38.17,52,50.25,30.74,40.29c-9,17.25-19.77,44.15-18.21,76.54,1.75,36.43,17.87,54.19,26,83.62,7.69,27.83,9.55,70.83-22,133.44,2-4.53,5.19-17.44,3.43-34.3-1.2-11.48-6.49-23.12-16.32-29.16a6.63,6.63,0,0,1-2.88-2.55c-.73-1.6.07-3.45.88-5A306.79,306.79,0,0,1,24.55,225.3c5.55-7.79,11.6-15.59,14-24.85s0-20.56-8.25-25.42c-6.18-3.65-15.88-4.7-16.73-11.81-.51-4.21,2.81-7.78,5.72-10.86A119.54,119.54,0,0,0,48.22,99.47c1.82-7.33,2.91-15.28.09-22.3-5.05-12.56-20-17.28-33.19-20.48A61.54,61.54,0,0,0,29.25,24.15c-6.2,16.56-6.33,34.69-6.38,52.37s.94,37.87,14.41,49.42c3.39,2.92,7.83,5.81,7.93,10.28.06,2.7-1.57,5.11-3.09,7.34A243.34,243.34,0,0,0,3.21,240.33c-.82,4.87-1.47,9.94,0,14.65,2.3,7.54,9.56,12.6,17.06,15s15.5,2.7,23.25,4.12c3.27.59,7,1.83,8,5,.8,2.42-.36,5-1.51,7.28a323.78,323.78,0,0,1-32.6,51.43c-2.07,2.67-7.47,4.37-13.83,6.42"/></g></g></svg>