<svg xmlns="http://www.w3.org/2000/svg" viewBox="0 0 259.4 69.95"><defs><style>.cls-1{fill:none;stroke:#fff;stroke-miterlimit:10;}</style></defs><title>contact-title</title><g id="Layer_2" data-name="Layer 2"><g id="Layer_2-2" data-name="Layer 2"><path id="a" class="cls-1" d="M171.91,41.06c3.05-5.21,8.27-8.14,13.05-7.34,5.66,1,8.44,6.78,8.77,7.48,1.5,3.26,1.37,7.17,1.5,15,0,1.12,0,2,0,2.67,0,1.39.08,2.42.1,2.77.06,1.33.14,3.57.22,7.57-.07-2.53-.15-5.05-.22-7.57-3.84,6-10.6,8.59-16,6.68a11.73,11.73,0,0,1-7.55-8.63,11.47,11.47,0,0,1,1.76-8.18c3.15-4.85,8.82-5.54,10.61-5.76A17.74,17.74,0,0,1,195,48"/><path id="N" class="cls-1" d="M107.73,33.38c.43,27.28.38,34.56.2,34.56s-4.88-21.72,5.38-30.3c5.3-4.42,14.78-5.54,21.13-1.54,3.78,2.39,5.53,6.1,6.47,8.07,1.86,3.92,2,8.14,2.25,16.39.1,3.18.08,5.83.05,7.69l-.26,0"/><path id="o" class="cls-1" d="M64.21,41.51c-4.09,7.48.07,15.59.5,16.4A18.74,18.74,0,0,0,80.4,67.76c9.19.29,19-6.78,19.43-16.41.36-8.31-6.46-14.89-13.11-17.17C78.87,31.49,68.44,33.8,64.21,41.51Z"/><path id="t" class="cls-1" d="M157.25,1.49S157.13,16,157,33.77c-.16,19.08-.3,34.56-.3,34.56s.05-6,.3-34.56l-12.38-.35,23.91.45L157,33.77C157.2,7.08,157.25,1.49,157.25,1.49Z"/><path id="t-2" data-name="t" class="cls-1" d="M248.14,2.29s-.12,14.47-.28,32.27c-.16,19.08-.3,34.56-.3,34.56s.05-6,.3-34.56l-12.39-.35,23.92.45-11.53-.1C248.09,7.87,248.14,2.29,248.14,2.29Z"/><path id="C" class="cls-1" d="M58.08,56.88C56.11,59,48,67,35.43,67.73A33.72,33.72,0,0,1,3.26,48C-3.69,32.5,4.58,18.22,5.34,17,6.32,15.33,16.2-.45,33.8.55c15.78.89,24.07,14.5,24.75,15.66"/><path id="c-2" data-name="c" class="cls-1" d="M231.22,63.75a18,18,0,0,1-11.83,5.67,17.63,17.63,0,0,1-16.81-10.3c-3.63-8.1.69-15.57,1.09-16.22.51-.85,5.67-9.1,14.87-8.58,8.24.47,12.57,7.58,12.93,8.18"/></g></g></svg>