<svg xmlns="http://www.w3.org/2000/svg" viewBox="0 0 282.31 296.15"><defs><style>.cls-1{fill:none;stroke:#fff;stroke-miterlimit:10;}</style></defs><title>needle</title><g id="Layer_2" data-name="Layer 2"><g id="Layer_2-2" data-name="Layer 2"><path class="cls-1" d="M99.57,1.2A3.38,3.38,0,0,0,96,.86c-1.57.84-1.89,3-2,3.94C93.34,8.63,92,14.34,90,22.07Q85,44.29,79.88,66.51,75,88.25,70.05,110q-3.84,17.79-7.69,35.58-4.74,18.41-9.5,36.8-4.44,19.11-8.9,38.22-3.52,16-7.07,31.94L32.24,276.8,29.81,296q3-9.92,6.07-19.82l12.33-48.32q4.76-21,9.5-42.06,6.07-25.08,12.14-50.15L80.56,91.18q7.89-33.36,15.77-66.73a166,166,0,0,0,4.09-18.16C100.64,4.78,101,2.38,99.57,1.2ZM92.09,30.09a1.22,1.22,0,0,1-.76-.24c-1.63-1.08-.17-5.05,1.66-13,1.57-6.79,2-10.55,3.77-10.77a1.43,1.43,0,0,1,1,.24c1.49,1,.12,4.7-1.56,11.49C94.27,25.57,93.79,30,92.09,30.09Z"/><path class="cls-1" d="M16.61,159.63c4.39-5.23,9.69-13.33,9.87-23.38.17-8.86-3.76-12.73-12.47-30.66C5.09,87.22.63,77.82.51,67.15c0-4.18,0-17.31,8.83-28.58C17.69,27.93,29.2,24.91,40.51,21.94a97.18,97.18,0,0,1,41.57-1.55c9.64,1.72,27.06,6.28,50.39,23.9,21.93,16.55,21.74,24,60.79,70.14,27.3,32.25,39.66,43.12,52,51.95a215.73,215.73,0,0,0,36.89,21.3"/></g></g></svg>